<svg xmlns="http://www.w3.org/2000/svg" width="30" height="21" viewBox="0 0 30 21">
    <g fill="none" fill-rule="evenodd">
        <path d="M-5-5h40v30H-5z"/>
        <path fill="#BBB4C3" d="M29.97 2.11c.02.038.03.077.03.117v15.117c0 .781-.195 1.523-.586 2.226-.39.703-.976 1.055-1.758 1.055H3.281c-.781 0-1.523-.352-2.226-1.055C.352 18.867 0 18.125 0 17.344V2.227c0-.04.01-.079.03-.118a.682.682 0 0 1 0-.395 1.06 1.06 0 0 1 .204-.366.48.48 0 0 0 .059-.074.221.221 0 0 1 .088-.073c.293-.39.708-.688 1.245-.893A4.604 4.604 0 0 1 3.281 0h24.375c.625 0 1.128.132 1.509.396.38.263.63.659.747 1.186.04.078.064.161.073.25.01.087.005.18-.014.277zM2.843 1.874c-.156 0-.313.01-.469.03L15 11.981 27.656 1.875H2.842zM27.656 18.75c.254 0 .396-.17.425-.513.03-.341.044-.64.044-.893V3.926l-12.51 9.99a1.166 1.166 0 0 1-.293.176.86.86 0 0 1-.322.058.86.86 0 0 1-.322-.058 1.166 1.166 0 0 1-.293-.176l-12.51-9.99v13.418c0 .254.17.552.513.893.341.342.64.513.893.513h24.375z"/>
    </g>
</svg>
