<?xml version="1.0" encoding="UTF-8"?>
<!DOCTYPE svg PUBLIC "-//W3C//DTD SVG 1.1//EN" "http://www.w3.org/Graphics/SVG/1.1/DTD/svg11.dtd">
<!-- Creator: CorelDRAW 2018 (64-Bit) -->
<?xml-stylesheet href="OAC.css" type="text/css"?>
<svg xmlns="http://www.w3.org/2000/svg" xml:space="preserve" width="7.25792in" height="2.72298in" version="1.1" style="shape-rendering:geometricPrecision; text-rendering:geometricPrecision; image-rendering:optimizeQuality; fill-rule:evenodd; clip-rule:evenodd"
viewBox="0 0 7294.9 2736.86"
 xmlns:xlink="http://www.w3.org/1999/xlink">
 <g id="Layer_x0020_1">
  <metadata id="CorelCorpID_0Corel-Layer"/>
  <path class="fil0" d="M-0 2171.74l6.34 402.45c0,0 690.83,218.66 1720.74,148.94 1036.24,-114.08 1289.76,-519.71 1533.77,-776.39l1258.07 6.34c0,0 776.39,700.33 1654.19,700.33 877.8,0 1121.8,-142.6 1121.8,-142.6l0 -402.45c0,0 -400.08,216.13 -995.84,193.94 -640.13,0 -870.67,-624.92 -870.67,-897.45 0,-272.53 46.89,-873.26 643.3,-1033.07 602.74,-105.93 1204.2,140.06 1204.2,140.06l-6.34 -389.78c0,0 -776.39,-260.8 -1609.82,-19.97 -833.43,240.84 -868.29,1144.94 -868.29,1144.94l-519.71 -1166.8 -608.44 -3.17 -510.2 1159.84c29.92,-68.03 -78.6,-1172.49 -1352.5,-1226.38 -37.92,-1.61 -219.54,3.46 -255.69,6.24 -1138.93,87.53 -1332.59,860.55 -1332.59,1312.04 0,465.84 225,798.58 446.82,1020.4 0,0 -218.66,28.52 -659.14,-177.46zm1946.86 -1087.48c91.51,64.77 150.83,168.64 150.83,285.76 0,101.53 -44.58,193.11 -116.08,257.89 107.23,-17.8 203.04,-45.4 281.8,-80.29 122.48,-54.27 198.24,-121.51 198.24,-188.85 0,-67.34 -75.76,-134.58 -198.24,-188.85 -87.18,-38.62 -195.23,-68.3 -316.55,-85.66zm-466.52 553.44c-78.04,-65.16 -127.35,-160.92 -127.35,-267.68 0,-122.32 64.72,-230.21 163.23,-294.17 -149.53,14.99 -282.41,48.23 -385.87,94.07 -122.49,54.27 -198.24,121.51 -198.24,188.85 0,67.33 75.76,134.58 198.24,188.85 95.1,42.14 215.07,73.63 349.98,90.08zm216.54 -739.75c246.26,0 470.72,44.9 634.53,117.48 76.5,33.9 140.91,74.48 190.16,120.35 -78.65,-457.12 -421.39,-801.21 -832.29,-801.21 -416.21,0 -762.46,353.05 -835.18,819.02 51.11,-53.23 122,-99.94 208.26,-138.15 163.81,-72.58 388.26,-117.48 634.52,-117.48zm813.67 693.75c-47.69,41.8 -108.22,78.97 -179.14,110.4 -163.81,72.58 -388.27,117.48 -634.53,117.48 -246.26,0 -470.72,-44.89 -634.52,-117.48 -80.68,-35.75 -147.93,-78.92 -198.1,-127.91 90.67,438.02 425.62,763.14 825.02,763.14 394.07,0 725.41,-316.48 821.28,-745.63zm1357.73 -1012.35l-434.15 985.54c0,0 -11.1,31.69 23.77,31.69 34.86,0 849.68,-3.95 849.68,-3.95 0,0 51.5,3.17 23.37,-47.53 -28.13,-50.71 -438.09,-966.53 -438.09,-966.53 0,0 -11.49,-17.43 -24.59,0.78z"/>
 </g>
</svg>
