<?xml version="1.0" encoding="UTF-8"?>
<!DOCTYPE svg PUBLIC "-//W3C//DTD SVG 1.1//EN" "http://www.w3.org/Graphics/SVG/1.1/DTD/svg11.dtd">
<!-- Creator: CorelDRAW 2018 (64-Bit) -->
<svg xmlns="http://www.w3.org/2000/svg" xml:space="preserve" width="13.3038in" height="13.1242in" version="1.1" style="shape-rendering:geometricPrecision; text-rendering:geometricPrecision; image-rendering:optimizeQuality; fill-rule:evenodd; clip-rule:evenodd"
viewBox="0 0 13274.36 13095.18"
 xmlns:xlink="http://www.w3.org/1999/xlink">
 <defs>
  <style type="text/css">
   <![CDATA[
    .fil14 {fill:#57201F}
    .fil49 {fill:#592626}
    .fil51 {fill:#631C1C}
    .fil44 {fill:#66241C}
    .fil45 {fill:#672827}
    .fil33 {fill:#691D22}
    .fil25 {fill:#6C2323}
    .fil32 {fill:#6E2F2E}
    .fil13 {fill:#73231D}
    .fil3 {fill:#732422}
    .fil0 {fill:#762220}
    .fil31 {fill:#773837}
    .fil22 {fill:#996766}
    .fil52 {fill:#A7453A}
    .fil53 {fill:#A95751}
    .fil28 {fill:#B83834}
    .fil40 {fill:#B84A47}
    .fil48 {fill:#BBA46D}
    .fil11 {fill:#C43B33}
    .fil12 {fill:#C53B2B}
    .fil21 {fill:#C78A55}
    .fil24 {fill:#C98548}
    .fil38 {fill:#C99667}
    .fil2 {fill:#CA392D}
    .fil6 {fill:#CC372C}
    .fil34 {fill:#CF544D}
    .fil23 {fill:#D39156}
    .fil9 {fill:#D58944}
    .fil27 {fill:#D68A4B}
    .fil56 {fill:#D9C88F}
    .fil7 {fill:#DA8642}
    .fil29 {fill:#DB863C}
    .fil20 {fill:#DC883D}
    .fil4 {fill:#DD873E}
    .fil26 {fill:#E4BC49}
    .fil41 {fill:#E4BC56}
    .fil15 {fill:#E5C357}
    .fil39 {fill:#E5C666}
    .fil54 {fill:#E88B75}
    .fil17 {fill:#E8D588}
    .fil8 {fill:#EBC244}
    .fil5 {fill:#EBC24A}
    .fil55 {fill:#EBD5CF}
    .fil47 {fill:#EDAEA7}
    .fil30 {fill:#EDBD4B}
    .fil10 {fill:#EDBE43}
    .fil1 {fill:#EDC041}
    .fil18 {fill:#F5DA97}
    .fil16 {fill:#FAFAFB}
    .fil37 {fill:#FAFDF5}
    .fil57 {fill:#FCDAD6}
    .fil35 {fill:#FCE7B8}
    .fil36 {fill:#FEF5BA}
    .fil42 {fill:#FEFBEA}
    .fil19 {fill:#FFF4D4}
    .fil50 {fill:#FFF4E4}
    .fil43 {fill:#FFFAEE}
    .fil46 {fill:#FFFCE4}
   ]]>
  </style>
 </defs>
 <g id="Layer_x0020_1">
  <metadata id="CorelCorpID_0Corel-Layer"/>
  <g id="_2289107079488">
   <path class="fil0" d="M3901.07 5648.7c148.13,42.06 96.58,1.55 198.15,-20.06l24.14 42.56c0.76,1.57 2.14,5.73 3.58,8.41 129.84,-64.51 60.18,-84.51 152.44,-82.58l8.05 63.26c9.04,-2.33 13.71,-9.75 15.14,-7.08l55.24 -45.96c59.4,14.93 -19.82,22.4 43.73,15.07 16.22,-1.87 21.77,-14.08 54.47,-20.86 -38.4,49.12 -163.43,78.31 -245.7,91.11 -54.99,8.56 -111.87,12.17 -167.15,5.98l-106.1 -21.9c-41.67,-19.47 -18.14,-9.19 -35.98,-27.94zm-648.94 -49.72c152.37,52.16 62.28,-43.09 154.19,57.57 2.18,-3.04 4.67,-11.83 5.46,-9.81l22.25 -52.72c97.07,12.98 50.68,55.47 152.44,85.34l9.3 -52.36c122.82,19.03 33.38,60.79 212.05,23.17 -60.24,68.35 -223.74,55.61 -303.95,43.64 -71.96,-10.74 -212.91,-42.28 -251.74,-94.83zm-88.16 -2058.44l1389.61 3.46 -1.67 1982.42 -1388.01 0.79 0.06 -1986.67zm1537.2 1955.45c-59.62,-20.2 -59.03,-206.08 -58.91,-258.33 0.18,-80.68 7.8,-213.73 73.06,-269.64 -34.47,111.47 -15.6,74.37 9.4,172.57l-47.98 24.37c-1.32,-2.56 -6.07,1.88 -8.86,3.35 24,73.13 73.51,90.85 61.2,156.3 -3.24,1.14 -8.05,1.58 -10.15,1.87l-56.39 8.13c17.19,35.06 16.8,32.6 41.42,58.69 -22.45,110.2 29.34,-84.86 -12.65,27.24 -6.95,18.54 -7.32,-8.89 -7.49,25.54 -0.01,1.14 16.42,47.16 17.36,49.92zm-1674.23 -355.4c37.9,-130.62 34.22,-80.23 -7.92,-197.58 108.57,68.97 118.27,498.7 30.21,557.02 23.92,-76.33 24.3,-48.5 11.66,-80.77l-9.84 -19.96c-0.82,-5.84 -3.89,-7.31 -4.85,-11.3 40,-28.5 22.46,-11.35 43,-53.39 -2.46,-1.4 -6.53,-2.57 -8,-2.87l-16.71 -3.19c-44.72,-6.21 7.88,22.71 -45.11,-7.79 3.54,-58.19 40.24,-92.49 63.99,-152.44l-56.42 -27.72zm1807.48 -361.2c-47.38,12.46 -30.4,28.33 -61.66,33.62 -12.48,-30.75 -31.91,-33.32 12.16,-53.93 48.1,-22.49 45.57,9.94 49.5,20.31zm-1863.38 -159.35c1.41,-4.61 4.18,-10.03 5.67,-13.3l22.57 -55.91c0.66,-1.77 2.32,-5.45 3.07,-7.38 0.88,-2.25 2.87,-6.05 3.86,-8.5 1.09,-2.71 2.89,-6.55 4.11,-9.46 15.82,-37.8 39.22,-101.6 76.92,-22.37l-51.41 13.86c-15.78,171.23 107.24,182.07 -42.93,357.22 -240.06,22.7 -51.48,-233.67 -32.4,-65.98 -79.52,1.03 6.09,9.13 -67.54,-30.43 -6.95,159.46 202.3,70.08 110.57,-66.79 15.78,-37.46 27.12,-21.53 32.86,-39.66 -18.96,-33.39 10.45,-5.31 -27.84,-34.29 -11.49,-8.7 -25.85,-11.69 -37.52,-16.99zm1863.38 159.35c8.21,10.4 21.85,-37.33 14.48,41.69 -5.62,60.27 -89.99,60.75 -112.21,52.56 -150.14,-101.56 -43.89,-207.32 -47.36,-352.15l-30.55 -10.82c-32.33,-15.46 -7.14,21.23 -21.41,-21.4 10.63,-6.95 15.35,-41.25 55.57,-0.87l25.55 48.95c0.92,-2.17 3.88,6.91 6.37,9.97 28.22,-71.76 92.62,-64.61 114.81,-162.92 20.23,-89.62 -29.77,-151.49 -109.75,-125.57 0.58,27 7.5,18.59 23.51,35 23.13,23.7 11.07,-2.38 26.23,38.18l-63.01 -2.33c-42.25,-175.76 190.3,-111.56 142.96,59.49 -11.4,41.18 -61.35,105.7 -82.83,126.41 -92.06,88.76 -58.81,51.23 -43.19,72.2 13.02,17.48 6.18,-13.57 16.58,26.52 -45.32,23.3 -30.5,21.91 -65.15,55.13 2.13,2.38 5.9,4.92 7.2,6.28 1.31,1.37 5.39,5.04 6.9,6.72l23.2 33.96c-113.96,85.28 101.14,243.16 112.1,63.01zm-1890.6 -282.57c-30.5,-13.67 -27.17,0.04 -53.9,-46.59 -126.57,-220.77 121.73,-276.54 126.95,-168.84 -17.26,48.77 -19.69,66 -70.17,41.58 11.41,-37.35 -6.51,-8.17 22.29,-32.42l35.15 -25.14c-108.81,-46.94 -187.22,42.83 -60.33,231.41zm1788.28 -329.91c-138.23,-58.28 -74.04,-444.13 -50.48,-554.49 10.88,20.44 3.81,-1.24 6.56,29.09 3.78,41.65 -8.25,-15.89 -0.58,29.44l21.26 46.73c-28.63,20.07 -24.94,23.05 -43.16,50.96l67.7 27.72c-7.11,50.27 -33.44,91.01 -66,130.44 26.68,31.11 11,20.42 58.22,28.71 -22.74,127.71 -56.17,80.98 6.48,211.41zm-1684.67 -453.7c0.99,-3.1 3.89,-6.85 4.75,-8.52 0.85,-1.63 3.87,-6.27 4.81,-8.28 22.9,-48.99 0.59,-33.35 -4.68,-87.31 89.12,82.34 76.23,487.7 -32.4,560.54 67.55,-186.98 19,-67.3 10.26,-206.98 49.53,-24.04 27.53,-2.14 53.36,-13.86 -16.07,-49.62 -10.07,-39.5 -38.31,-81.98 -59.82,-89.98 -13.75,-85.55 -10.73,-90.86l51.26 15.35c-0.75,-43.71 -9.58,-44.67 -38.32,-78.09zm359.89 -279.44l-61.65 65.12 -36.37 -23.34c-35.95,22.93 -23.47,22.08 -66.53,28.45 30.34,-39.71 98.55,-64.48 164.56,-70.24zm0 0c69.37,-39.73 224.06,-35.75 312.17,-18.27 66.5,13.2 59.25,19.01 80.27,40.5 -156.34,-47.02 -94.43,-6.52 -199.45,19.15 -18.27,-24.22 -2.95,-3.92 -14.81,-25.79 -1.53,-2.82 -7.87,-10.74 -8.78,-17.07 -0.62,-4.32 -2.5,-5.75 -4.13,-8.42 -50.22,29.89 -89.5,80.79 -157.07,81.88l-8.21 -71.98zm542.23 11.25c12.84,-30.7 5.48,-23.74 53.19,-36.56 124.28,-33.41 274.01,-18.11 391.83,23.06 16.2,5.66 48.67,17.95 60.63,23.64 41.51,19.77 27.27,11.98 48.01,37.56 -108.52,-38.91 -49.45,-31.65 -101.5,-2.31l-53.06 -55.36 -19.5 39.93c-1.1,2.63 -3.34,13.51 -4.12,11.43 -0.81,-2.14 -2.27,8.07 -4.09,11.83 -96.55,-14.93 -36.8,-45.97 -157.21,-87.7l-3.24 54.43c-98.34,-20.84 -86.41,-76.39 -210.93,-19.94zm-61.74 -144.17l-3.04 62.33c7.58,-11.71 4.22,-0.65 19.75,-34.17 79.12,-170.8 43.82,-60.11 84.13,-135.41l85.55 5.66c-39.92,33.71 -74.27,39.37 -112.49,98.73 -9.11,14.16 -22.11,40.08 -35.25,61.58 -25.99,42.56 -17.21,16.08 -28.56,68.52 0,0 -1.03,-26.74 -54.05,0.46 -39.39,-103.11 -77.51,-160.97 -146.53,-213.23l-44.8 54.38c4.05,-50.47 0.1,-76.07 58.25,-75.56 87.65,0.75 99.38,80.05 126.57,146.44 11.61,28.34 11.21,23.18 20.45,33.9l-9.86 -80.3 -36.07 -90.67 68.87 -47.3c21.7,29.11 -0.1,18.9 44.66,23.27l-37.57 121.4zm-266.1 -248.97c9.22,-30.02 189.51,-415.78 255.77,-428.72 43.33,30.99 214.63,368.36 235.32,429.08 -129.2,-2.91 -183.82,2.9 -248.31,76 -80.4,-64.44 -97.6,-77.63 -242.78,-76.36zm1195.5 137.73c-117.79,-172.75 -194.64,-71.6 -426.22,-99.49 -76.02,-9.15 -153.61,-24.38 -232.72,-34.05l-230.74 -432.13c-14.2,-51.17 -5.58,-163.92 -100.88,-116.33 -60.58,30.26 4.34,74.03 -39.59,158.64 -25.5,49.12 -53.19,93.62 -78.32,144.28 -82.6,166.53 -101.94,239.7 -190.13,251.68 -167.51,22.75 -230.69,41.41 -408.09,16.48 -211.77,-29.76 -130.82,73.19 -289.62,145.43 -144,65.51 -32.42,152.21 -68.31,321.89 -48.97,231.54 -48.67,237.79 41.62,347.36 -95.82,103.19 -83.24,153.83 -49.05,312.5 49.62,230.3 -54.14,230.38 -50.48,338.3 4.08,120.03 100.27,101.99 49.8,337.48 -27.94,130.38 -45.33,208.62 32.53,293.37 15.46,16.83 7.63,4.42 21.66,23.77 -117.68,50.57 -71.73,207.75 -46.49,332.26 40.12,197.88 -73.4,213.11 -51.22,360.45 55.39,46.66 82.31,45.75 117.34,72.66 38.66,29.71 25.71,64.65 104.96,77.26 87.23,13.87 212.16,-52.38 305.81,-62.4 181.53,-19.42 515.09,127.3 617.13,-39.24 93.03,52.68 87.93,80.02 239.21,75.52 214.49,-6.37 312.88,-76.36 521.02,-10.28 269.04,85.41 198,14.23 316.53,-53.64 177.68,-101.74 61.96,-127.89 31.19,-292.01 -28.8,-153.64 117.95,-379.82 -38.34,-460.57 22.43,-38.59 3.92,-5.83 26.12,-33.06 21.88,-26.83 40.74,-40 45.07,-108.08 3.94,-62.09 -10.34,-127.9 -22.6,-187.01 -45.14,-217.47 50.31,-218.75 52.18,-325.88 1.87,-107.36 -97.6,-115.83 -52.75,-328.09 44.21,-209.23 36.3,-225.18 -44.79,-323.32 31.3,-42.85 61.6,-52.09 67.65,-124.88 4.49,-53.99 -5.77,-113.94 -15.95,-164.53 -36.67,-182.22 3.98,-172.96 -1.83,-305.13 -60.36,-53.98 -103.71,-38.86 -151.68,-109.22z"/>
   <path class="fil1" d="M5833.26 6409.23c127.65,-43.43 249.09,-34.02 356.54,-133.96 67.04,-62.35 51.68,-58.71 31.78,-137.25 -21.69,-85.6 -9.23,-104.91 -47.44,-190.21 -80.07,20.14 -83.08,105.79 -341.68,191.11 -138.34,45.64 -306.77,66.19 -472.15,66.19 -129.92,0 -86.76,-17.25 -167.16,41.06 10.16,76.03 22.28,17.78 23.85,85.35 0.96,41.35 -14.9,14.92 -6.77,81.55 143.35,72.54 238.44,13.57 312.61,44.04 -57.43,30.02 -124.5,23.73 -198.8,20.96 2.93,66.11 -9.31,141.51 17.23,190.95 44.27,82.48 46.35,15.61 28.22,139.64 -34.11,233.27 -54.95,154.79 -15.12,308.16 18.62,71.69 -53.5,166.37 -34.56,322.56 33.8,278.71 -14.7,206.51 -2.33,334.65 180.03,-61.18 278.78,-256.82 280.14,-499.31 -1.82,-279.38 -48.8,-561.85 119.49,-743.09 -73.25,138.27 -100.64,225.68 -100.11,424.36 0.45,167.87 25.86,338.23 -2.08,504.74 -25.51,151.99 -98.37,238.69 -199.24,312.94 -56.92,41.9 -108.76,55.33 -147.81,116.15 -61.8,96.25 -3.73,119.81 -1.59,220.83 -113.66,63.43 -162.66,151.02 -250.44,246.96 -151.51,165.59 -172.46,156.06 -151.45,328.7 99.71,35.08 802.94,136.06 1007.36,182.8 164.38,37.59 253.04,-21.52 401.92,-168.39 58.41,-57.62 86.96,-114.82 136.83,-167.93 106.85,-113.82 12.22,-280.35 10.5,-370.42 -4.25,-222.16 -31.29,-163.99 -95.85,-340.76 -64.82,-177.47 34.85,-363.45 -30.79,-537.59 -49.78,-132.07 -142.8,-297.55 -149.29,-452.18 -8.59,-204.52 94.59,-301.16 79.75,-517.24 -162.98,56.55 -162.4,105.48 -391.54,94.62z"/>
   <path class="fil2" d="M6134.32 12748.72l-111.85 4.11 -30.11 -919.42c-0.39,-23.7 -1.2,-44.48 3.77,-67.24 8.85,-40.54 -0.77,-0.57 21.68,-51.77l126.63 -3.01c42.83,105.8 27.15,81.01 21.4,247.42 -6.08,176.09 -11.23,680.32 -31.52,789.92zm896.65 -5.86c-2.79,-177.03 -8.92,-355.14 -14.11,-532.19 -2.4,-81.75 -4.9,-168.04 -7.71,-251.87 -5.53,-164.98 -21.32,-140.08 19.97,-246.86l129.55 1.51c50.03,150.99 -1.69,850 -5.27,1029.19 -47.06,16.12 -74.99,15.79 -122.43,0.22zm796.06 8.8l-120.01 -1.76 -25.5 -874.32c-5.22,-156.37 -12.71,-172.54 145.55,-162.02 57.49,102.05 21.93,362.5 17.71,494.56 -5.79,181.52 -10.57,362.5 -17.76,543.54zm-1469.76 0.09c-7.85,-179.13 -10.84,-361.36 -16.29,-542.46 -4.32,-143.72 -35.72,-378.01 17.12,-497.36l124.94 -0.24c14.37,43.8 25.84,47.99 25.4,107.46l-30.74 930.78 -120.42 1.82zm1012.48 -1037.17c189.67,-17.21 156.83,5.45 139.54,438.23 -7.92,198.24 -12.08,395.52 -19.82,593.77l-120.14 6.23 -22.72 -798.52c-4.78,-124.31 -17.75,-143.6 23.13,-239.71zm-675.51 1033.57c-3.87,-180.7 -9.87,-359.85 -15.46,-539.93 -4.93,-158.91 -35.42,-345.87 13.12,-497l123.52 1.94c52.43,98 21.24,340.29 16.49,508.95 -4.95,175.96 -9.38,351.81 -17.22,530.11l-120.46 -4.06zm-1008.96 -7.93c-21.75,-128.62 -13.21,-384.34 -18.58,-531.97 -5.29,-145.35 -31.87,-373.68 13.97,-496.05 147.84,-4.36 157.96,-7.26 151.42,149.23l-29.1 889.7 -117.7 -10.91zm1322.54 -1130.44c1.32,-3.18 2.77,-7.93 4.02,-11.2l11.46 -33.63c23.97,43.58 -0.82,59.89 -12.24,85.42l-56.98 -10.38c-15.44,-72.21 1.57,-64.36 13.79,-83.01l27.71 74.96 12.24 -22.16zm-1440.27 -113.36c51.18,-23.52 1142.62,-256.67 1203.61,-254.44 122.78,4.5 467.86,94.7 609.43,125.23 178.66,38.54 427.66,74.56 584.13,130.21l-2397.17 -1zm-219.18 -36.52c19.71,126.4 43.69,-118.3 44.12,246.38 51.79,8.8 85.3,1.18 99.82,50.44l-8.14 409.95c-6.96,190.71 -14.3,378.42 -18.05,568.19 -61.89,54.41 -74.06,-32.66 -74.43,87.88l2722.42 -6.19c-0.36,-89.06 5.97,-48.03 -70.84,-74.06l-24.1 -853.06c-1.57,-45.42 -12.27,-105.33 8.14,-144.62l28.92 -27.6c35.12,-19.92 18.33,8.36 57.35,-21.71 1.03,-380.13 38.63,-83.72 43.31,-249.45 -77.13,-53.35 -1146.21,-246.3 -1350.37,-308.18 -7.21,-106.18 -6.48,-97.08 -56.61,-160.25 -31.04,69.01 -38.69,5.85 -47.02,164.11l-1028.27 229.67c-83.34,18.48 -280.28,41.61 -326.27,88.52z"/>
   <path class="fil3" d="M11053.03 3932.92l0.55 2140.34c-88.54,-106.83 -55.44,-338.76 -55.47,-503.07 -0.07,-444.13 -14.26,-1117.18 -1.19,-1539.61 2.28,-73.54 3.34,-68.17 56.1,-97.66zm-84.91 62.59l3.77 1922.97c-85.39,-113.2 -56.03,-277.72 -56.18,-445.3l0.03 -1274.95c-0.27,-121.59 -27.8,-159.91 52.38,-202.72zm-92.26 62.52c27.16,41.42 14.9,146.25 14.87,195.63 -0.16,388.84 17.32,1225.79 -3.16,1510.15 -80.13,-95.5 -53.33,-243.45 -53.13,-387.64 0.51,-358.27 -11.88,-896.57 -1.74,-1235.04 2.2,-73.57 -7.2,-56.27 43.16,-83.1zm-68.61 44.92l1.63 1505.43c-80.06,-96.99 -56.14,-202.94 -56.16,-343.08l0.01 -803.77c0,-222.6 -34.39,-327.49 54.52,-358.58zm-80.92 38.51l0.14 1308.8 -38.71 -52.37c-37.89,-78.59 -14.37,-959.04 -17.11,-1131 -1.51,-95.12 -21,-99.24 55.68,-125.43zm-84.01 31.13l2.42 1122.45c-72.4,-69.26 -54.76,-136.74 -54.69,-251.45l-0.97 -763.26c-1.36,-87.78 -16.48,-88.24 53.23,-107.74zm509.96 2105.71c-44.26,-107.93 -73.47,-88.34 -72.37,-236.64 2.38,-323.44 -13.29,-2005.6 6.06,-2134.44 47.46,-30.25 87.05,-52.78 151.02,-61.32 19.64,111.51 75.76,192.56 146.53,233.23 89.97,51.7 77.57,56.63 115.19,271.58 78.24,446.99 7.41,949.9 -117.09,1378.55 -38.81,133.61 -153.21,475.93 -229.33,549.05zm-609.02 -2080.29c39.35,42.82 19.98,398.8 19.98,457.54 0,159.69 -0.33,319.37 -0.49,479.02 -3.04,-2.91 -7.36,-11.59 -8.79,-9.06 -1.4,2.47 -6.61,-6.72 -8.45,-9.02 -65.7,-81.55 38.78,60.99 -14.57,-17.95 -46.42,-68.7 -21.85,-670.94 -23.73,-804.54 -0.96,-68.44 -16.32,-79.24 36.06,-95.98zm-110.86 18.54l41.46 -4.63 6.28 774.6c-80.11,-55.84 -54.65,-250.4 -54.63,-358.68 0.02,-80.59 -12.52,-356.69 6.89,-411.28zm-85.75 5.66l47.29 -2.11 3.65 619.49c-44.14,-120.19 -53.46,21.94 -53.18,-267.19 0.11,-108.8 -7.35,-244.92 2.24,-350.2zm-83.21 -8.96c62.09,8.1 53.41,-0.28 53.9,66.6l-1.23 403.6c-79.03,-101.18 -64.56,-315.8 -52.67,-470.2zm-59.7 -13.32c38.81,20.31 31.77,-23.64 30.58,136.84 -0.47,63.26 0.95,126.58 -1.41,189.76 -22.6,-35.31 -51.42,-75.76 -54.89,-133.51l0.44 -153.4c10.36,-43.4 -3.37,-15.63 25.28,-39.7zm-171.67 -52.84l121.43 46.61 -0.72 174.71c-51.27,-48.75 -89.71,-148.35 -120.71,-221.32zm-97.72 186.3l757.39 2126.01 551.93 -0.65c-30.28,-99.85 -24.74,-60.52 85.13,-255.87 237.45,-422.2 425.63,-998.11 431.76,-1491.83 1.78,-142.9 -13.98,-582.71 -108.63,-661.11 -27.89,47.43 31.62,184.11 43.78,253.81 53.7,307.9 31.06,619.33 -34.07,918.47 -61.64,283.07 -242.2,790.1 -384.13,986.1l210.01 -458.05c192.31,-495.89 325.56,-1186.7 134.97,-1686.78 -136.68,14.06 -190.63,-39.13 -230.2,-131.82 -58.72,-137.55 -8.82,-186.03 46.8,-273.88 97.44,-3.05 127.39,14.8 123.91,112.59 -14.8,-36.42 -10.92,-75.26 -65.52,-82.17 -193.47,-24.5 -64.19,534.48 175.34,267.47 49.22,-54.87 77.35,-135.59 72.97,-228.03 -8.52,-180.05 -136.33,-300.53 -330.02,-283.35 -180.27,15.99 -323.03,126.42 -421.69,206.66 -241.61,196.47 -496.02,442.91 -838.75,393.95 -184.44,-26.35 -331.15,-171.17 -437.35,-20.33 -46.51,66.07 -52.14,171.01 -9.07,245.81 50.02,86.88 122.61,90.72 225.46,63z"/>
   <path class="fil4" d="M8415.84 6844.77l88.41 83.52 -126.89 244.37c-35.65,38.11 -38.96,12.19 -69.28,66.97l157.31 -6.73 42.77 -93.45c25.16,34.62 15.51,38.33 20.14,87.92 6.02,-41.09 29.46,-96.01 32.43,-136.01 7.04,-94.79 -45.43,-54.46 -13.18,-121.49 41.89,-23.61 78.55,20.35 135.1,45.02 49.1,21.43 93.67,33.47 151.2,43.5 157.85,27.52 222.53,-0.87 365.75,-17.61 143.02,-16.73 234.29,22.06 377.12,-24.33 118.4,-38.46 168.85,-102.44 259.78,-145.33 105.86,114.84 97.92,264.61 84.86,383.79l122.7 -105.18 -23.23 -96.71 37.33 -13.86c-37.51,-76.84 -12.24,-72.6 -87.37,-106.73 -60.14,-27.32 -54.03,-38.73 -78.7,-101.14 62.71,-142.42 208.82,-141.19 293.27,-178.2 96.68,-42.37 206.51,-123.08 232.5,-237.55 -142.8,-223.19 -446.49,-75.95 -523.36,-239.62 -18.98,-40.41 -23.97,-132.03 -51.85,-195.94 -117.42,-269.1 -476.82,-324.49 -499.69,-490.83 -50.73,-26.26 -120.46,-10.61 -199.37,-11.25 -17.15,17.93 -27.71,48.4 -51.16,82.02 -22.47,32.22 -28.11,36.06 -55.03,70.34 -194.04,247.1 -264.76,601.34 -431.92,870.12 -33.13,53.27 -79.11,103.59 -118.41,145.58 -38.45,41.08 -90.65,73.64 -122.39,131.2l51.15 67.62z"/>
   <path class="fil0" d="M4687.4 12241.42c-87.56,15.37 -502.8,21.19 -563.81,-5.47l2.2 -41.55c59.69,-21.9 477.12,-17.01 559.92,-4.16l1.69 51.18zm-345.92 -767.04c247.43,-98.65 390.96,296.54 134.36,389.01 -241.28,86.96 -417.64,-276.07 -134.36,-389.01zm556.14 -14.47c84.88,-358.73 -262.14,-558.65 -650.36,-490.34 -120.7,21.24 -183.26,77.89 -244.78,144.09 -207.27,223.01 27.56,445.48 -92.94,614.18 -61.27,85.79 -103.73,121.26 -140.72,248.06 -89.23,305.88 107.1,646.1 432.48,712.15 721.01,146.34 1084.45,-469.94 725.98,-933.44 -100.52,-129.97 -67.52,-134.72 -29.66,-294.7z"/>
   <path class="fil2" d="M6520.64 3394.46c72.35,-47.84 864.64,-20.65 1015.43,-21.68 86.17,-0.59 179.61,-18.35 197.18,76.75 9.55,51.7 2.61,189.35 2.6,249.82 -0.01,91.92 31.2,418.7 -49.17,454.86 -47.64,21.44 -881.79,9.05 -1010.13,9.58 -261,1.08 -187.39,-63.35 -189.36,-561.46 -0.26,-65.15 -18.68,-173.39 33.45,-207.86zm-346.57 27.72c-27.11,94.76 -57.64,-39.5 -56.28,221.71 2.58,497.54 35.41,213.14 56.3,360.41 10.94,77.16 -19.53,306.17 8.47,409.32l1917.08 -2.27 -0.77 -1294.48 -1924.12 -0.22 -0.67 305.54z"/>
   <path class="fil2" d="M12369.67 8286.46l23.79 -24.29c0.48,-83.77 50.17,-115.66 145.79,-100.49 -28.68,-108.48 -72.01,-164.34 -52.51,-302.91 15.5,-110.17 45,-188.49 15.81,-313.47 -21.01,-89.97 -84,-167.28 -147.19,-212.05 -75.37,-53.41 -154.13,-59.99 -250.96,-94.31 -8.1,-220.46 -19.08,-442.67 -27.58,-657.71 -8.97,-227.3 8.07,-221.21 7.75,-331.45 -0.34,-110.62 -5.9,-224.54 -7.24,-336.16 170.86,-50.99 124.34,-238.13 88.67,-288.71 -117.35,-166.38 -98.55,-192.96 -266.6,-164.67 -33.45,49.07 -129.24,182.43 -138.28,221.56 -29.34,127.04 16.48,203.12 111.07,232.78 1.14,111.99 -6.6,223.39 -7.48,334.79 -0.58,73.71 13.6,89.7 12.06,165.59l-35.19 826.2c-213.23,33.23 -376.44,101.28 -426.63,295.98 -32.55,126.25 -3.37,201.85 13.63,322.91 18.18,129.5 -24.78,201.23 -53.74,302.34 131.72,-21.89 129.41,33.26 167.86,127.44 12.14,100.24 20.13,189.08 -0.02,288.22 -23.73,116.71 -45.26,151.43 -169.04,146.44 37.75,169.02 -102.02,250.98 -123.79,450.9l-1.82 186.22c57.3,275.69 312.84,379.97 625.62,390.81 23.35,-179.6 12.34,-384.16 -67.36,-518.46l-8.3 -52.64c57.77,-2.82 114.83,-1.65 172.7,-2.12 158.55,-1.28 147.1,-15.58 151.49,33.29 -90.32,152.5 -95.43,329.63 -77.58,536.33 242.82,17.12 597.27,-137.91 601.5,-339.94 25.21,-30.19 28.19,-56.56 29.91,-98.66 1.62,-39.67 -1.84,-77.47 0.05,-116.42 -31.21,-78 -35.48,-150.4 -78.02,-232.44 -54.07,-104.23 -81.67,-108.85 -57.18,-237.4 -122.94,6.19 -140.83,-24.28 -166.35,-135.14 -24.4,-105.97 -12.35,-196.71 -4.88,-302.38zm8.98 481.05c-17.75,-24.48 -36.67,-19.52 -57.95,-20.71 4.71,97.57 11.71,75 38,88.43 19.2,-11.74 60,-12.48 19.96,-67.72zm-763.57 57.27l-88.12 10.21c-2.92,-72.41 4.69,-83.44 70.08,-91.16 -1.3,53.04 -21.17,53.49 18.04,80.95zm591.17 -77.19c-59.49,-110.12 13.93,-95.33 42.83,-127.29l23.98 -50.94c1.17,-2.74 3.11,-7.51 5.06,-11.06l27.31 72.87c-21.21,21.51 -29.98,26.43 -51.31,49.39l-47.86 67.03zm-589.94 -114.75l20.39 -73.19 18.83 42.24c28.85,51 43.95,14.27 78.53,86.38l-22.38 62.46c-40.86,-31.72 2.64,-17.47 -42.89,-65.81 -27.46,-29.15 -30.23,-21.35 -52.48,-52.08zm548.38 -57.09c-49.23,-14.49 -66.73,-14.37 -59.14,-72.05 53.51,-17.1 86.74,3.88 125.12,24.96l-61.08 -9.31c10.92,54.02 22.23,14.56 -4.9,56.4zm-355.68 -72.63c7.05,59.03 -11.15,62.31 -63.66,73.67 -24.75,-66.66 -28.63,-97.56 63.66,-73.67z"/>
   <path class="fil0" d="M10121.02 10434.41c12.54,-52.26 16.05,-43.29 84.62,-59.6 211.84,-50.37 418.58,-58.97 631.77,-12.1 152.6,33.54 157.21,27.61 160.33,96.9 -157.93,-27.21 -247.57,-71.39 -440.61,-72.18 -201.28,-0.82 -393.08,68.01 -436.11,46.98zm-0.06 -207.87c15.24,-52.38 27.56,-44.92 87.06,-58.66 205.4,-47.41 419.2,-57.42 626.58,-12.28 172.83,37.62 160.4,36.96 162.59,97.95 -159.43,-25.72 -245.72,-70.95 -440.02,-71.11 -210.46,-0.17 -391.86,69.75 -436.21,44.1zm0.32 -207.87c8.94,-32.5 -0.72,-36.51 88.57,-55.46 141.38,-30 221.55,-44.66 375.55,-41.24 84.9,1.89 165.94,11.16 247.44,28.13 144.49,30.09 160.05,28.89 165.85,97.61 -67.65,-7.29 -137.52,-37.87 -213.94,-51.08 -342.81,-59.24 -584.9,34.07 -618.18,34.33 -46,0.35 -17.63,6.35 -45.3,-12.29zm0.59 -181.65c1.21,-69.12 -2.73,-61.49 78.79,-78.92 208.89,-44.63 405.51,-59.74 618.58,-15.82 189.41,39.04 175.34,36.87 178.48,100.26 -163.35,-24.96 -246.59,-70.23 -440.68,-69.92 -182.96,0.29 -277.23,34.75 -435.18,64.4zm-0.58 -220.23c8.45,-55.25 8.49,-47.03 81.82,-63.78 223.26,-51 411.32,-57.66 637.68,-11.12 74.71,15.36 158.29,12.39 154.28,96.1 -50.41,-6.05 -133.82,-37.5 -199.98,-49.51 -156.91,-28.49 -318.99,-27.38 -476.4,-2.19 -33.47,5.35 -181.18,47.48 -187.41,33.14 -1.56,-3.59 -6.83,-1.28 -9.99,-2.64zm-138.02 1237.04c217.22,-47.2 332.65,-98.53 587.73,-97.98 334.25,0.71 451.17,86.37 564.98,94.49l-0.67 -1438.59c-174.43,-66.21 -372.87,-103.8 -578.19,-102.4 -243.92,1.66 -364.95,50.72 -573.71,96.36l-0.14 1448.13z"/>
   <path class="fil0" d="M8895.14 10460.08c0.26,-62.18 -8.75,-55.44 60.82,-74.24 213.5,-57.7 410.08,-71 629.67,-32.1 138.53,24.54 170.12,20.01 185.73,80.66 -33.17,18.57 -61.4,3.84 -107.71,-8.34 -329.66,-86.74 -515.52,-9.53 -768.5,34.02zm-0.52 -204.53c2.67,-65.45 -7.26,-54.37 63.89,-74.8 118.19,-33.94 239.84,-52.63 365.19,-54.2 84.72,-1.06 176.17,6.81 259.17,21.23 128.55,22.34 172.64,19.92 187.87,78.76 -32.02,20.93 -48.71,9.31 -108.82,-5.85 -35.15,-8.87 -68.09,-14.95 -103.33,-20.53 -359.97,-57 -444.07,19.83 -663.98,55.4zm-1.26 -206.39c5.31,-64.96 -2.94,-55.62 67.27,-75.79 233.76,-67.15 497.38,-66.03 734.51,-8.63 68.05,16.47 69.46,9.42 73.7,67.79 -7.35,2.27 -345.15,-54.67 -430.91,-54.72 -194.39,-0.12 -275.39,37.86 -444.57,71.36zm0.51 -204.27c4.99,-69.61 3.71,-59.68 80.16,-79.87 118.65,-31.34 239,-48.37 363.64,-48.53 125.71,-0.16 247.48,15.97 367.54,46.19 69.39,17.47 63.76,6.82 63.13,74.61 -434.47,-109.93 -495.33,-69.4 -874.46,7.61zm3.62 -206.82c-4.74,-65.9 1.89,-56.47 66.99,-74.56 205.78,-57.22 400.67,-67.12 612.82,-32.07 143.19,23.66 182.02,20.4 193.66,85.34 -33.54,15.85 -62.68,0.07 -103.49,-10.65 -34.72,-9.12 -69.17,-15.54 -105.99,-21.67 -320.8,-53.37 -419.72,11.73 -663.98,53.61zm-141.86 1216.34c94.7,-19.47 174.61,-53.35 277.94,-72.45 197.23,-36.45 407.71,-33.57 604.82,1.98 102.36,18.46 180.62,51.91 269.42,69.68l-1.3 -1445.58c-484.05,-132.76 -664.55,-134.62 -1150.09,1.98l-0.8 1444.4z"/>
   <path class="fil1" d="M5167.02 5076.79c87.31,4.15 102.02,-82.64 241.56,-33.21 -70.36,50.73 -206.72,-2.24 -197.12,124.72 102.09,58.74 149.26,-14.55 226.84,-25.16l7.19 62.72c10.18,310 -35.04,238.25 -122.05,451.68 -54.85,134.56 -99.41,339.28 -71.68,506.51 257.17,13.43 475.73,-18.1 680.2,-104.9 311.39,-132.19 192.81,-230.08 161.29,-532.71 -10.99,-105.5 51.14,-216.15 68.15,-319.1 10.44,-63.19 6.45,-116.84 13.45,-177.21 6.45,-55.71 27.68,-99.7 39.16,-159.08 22.05,-114.04 19.77,-260.63 -83.81,-296.35 -124.98,-43.09 -210.4,51.66 -291.99,-91.05 -214.58,50.77 -132.31,-4.26 -276.84,-44.32 8.23,270.98 -71.64,197.49 -258.46,270.71 -166.85,65.39 -118.46,185 -135.9,366.76z"/>
   <path class="fil2" d="M6621.51 2909.42c-21.9,-54.36 -13.18,-131.54 -11.8,-195.34l80.8 -44.13c55.7,27.46 121.24,59.79 155.12,100.89 -11.7,66.25 -153.54,168.96 -224.13,138.58zm-341.2 -124.72c97.07,-102.35 163.96,-127.35 243.6,-55.43 2.27,92.44 46.96,290.2 -175.78,134.41 -12.68,-8.87 -31.02,-24.21 -37.89,-31.48 -18.27,-19.33 -29.41,-46.87 -29.93,-47.49zm1407.18 -83.15l82.19 -61.56c63.61,28.28 157.1,72.56 182.96,130.85 -29.54,60.63 -123.35,119.06 -181.57,139.59 -99.57,35.12 -92.11,-9.2 -83.58,-208.88zm-366.18 69.29c38.56,-56.18 107.35,-79.61 173.18,-116.75 32.76,10.28 63.45,29.3 94.86,47.45 13.1,173.51 32.5,316.11 -195.93,155.86 -72.47,-50.84 -67.28,-78.73 -72.11,-86.57zm-1110.02 -87.77c-34.41,-85.99 -31.94,-166.93 -1.14,-253.98 76.36,-7.44 123.11,50.02 189.6,76.42l-1.9 99.67c-55.83,26.92 -118.56,84.85 -186.56,77.89zm508 -179.55c64.67,-29.43 109.47,-80.95 194.83,-82.28 18.43,107.01 31.06,128.78 5.14,247.11 -62.24,14.37 -150.8,-50.12 -193.51,-81.62l-6.46 -83.21zm524.31 156.57c-37.45,-90.23 -35.96,-196.91 2.08,-288.54 72.84,-0.07 146.36,54.81 205.9,94.42l-0.66 97c-44.38,40.15 -135.9,98.31 -207.32,97.12zm570.58 -206.16c74.27,-31.71 119.86,-85.53 208.83,-88.85 17.12,87.5 49.12,197.09 -1.91,281.77 -67.16,1.26 -99.28,-31.82 -149.79,-58.96 -70.05,-37.64 -62.93,-41.46 -57.13,-133.96zm-1200.85 -50.61c-20.22,-59.65 -19.55,-146.79 3.18,-206.13 93.33,-14.32 205.99,71.09 222.95,130.19 -31.83,34.25 -63.45,48.36 -104.48,72.29 -66.66,38.88 -54.4,30.58 -121.64,3.65zm-332.17 -75.95c18.08,-74.27 156.66,-142.64 219.58,-129.54 27.65,44.83 47.54,207.43 -35.62,225.79 -53.83,11.89 -156.72,-58.09 -183.97,-96.25zm1398.82 10.9c-2.43,-77.24 -10.2,-158.99 16.61,-225.08 99.98,-0.33 226.73,79.91 248.34,144.89 -31.71,46.99 -74.52,60.67 -125.89,89.88 -77.28,43.94 -61.25,25.48 -139.07,-9.68zm-359.55 -80.19c20.8,-59.83 118.55,-117.63 190,-138.28 95.53,-27.62 79.88,52.14 73.19,215.73 -61.67,36.31 -72.04,56.12 -140.3,16.34 -56.72,-33.06 -90.06,-44.85 -122.89,-93.78zm-255.54 188.92c-62.8,-114.73 -29.09,-147.89 -181.01,-284.88 -286.77,-258.55 -838.78,-67.99 -833.73,401.06 2.89,268.46 212.3,486.7 473.63,502.68 228.01,13.95 448.49,-125.69 515.98,-333.38 3.53,-10.86 9.92,-35.57 12.62,-42.48 1.69,-4.33 6.99,-17.08 9.05,-21.15 10.75,-21.2 9.66,-18.32 19.7,-30.57 33.31,253.92 314.96,484.64 627.94,442.08 276.56,-37.61 500.58,-277.24 489.59,-586.64 -10.41,-293.03 -245.76,-529.76 -537.36,-542.62 -164.44,-7.26 -311.8,52.9 -402.49,140.49 -175.63,169.62 -127.84,192.63 -193.91,355.39z"/>
   <path class="fil5" d="M2687.94 2022.5c23.58,-43.92 134.16,-26.44 233.34,-26.59 97.44,-0.15 209.76,-18.15 236.61,26.59 -50.45,23.99 -420.17,25.49 -469.95,0zm1195.2 74.62c-24.6,28.33 -52.93,51.11 -83.61,68.7 -52.66,31.19 -114.12,49.1 -179.76,49.1 -86.5,0 -165.72,-31.1 -227.14,-82.69 -56.38,-44.71 -98.99,-107.61 -116.1,-186.39 -6.62,-27.01 -10.15,-55.24 -10.15,-84.3 0,-195.17 158.22,-353.39 353.39,-353.39 195.17,0 353.39,158.22 353.39,353.39 0,90.51 -34.05,173.06 -90.01,235.58zm-720.81 -338.97l-13.45 222.31c-84.23,10.89 -380.27,14.17 -458.79,-6.58 -2.86,-56.98 1.93,30.59 4.34,-28.91l-3.5 -112.78c0.28,-3.96 0.66,-7.88 0.85,-11.77l-0.7 -31.94c0.24,-2.47 -0.42,-6.83 0.1,-9.04 8.31,-35.02 31.7,-27.7 75.4,-28.61 112.62,-2.32 288.71,-6.18 395.74,7.31zm-448.93 -179.04l429.6 0.18c2.2,5.49 3.87,7.3 4.62,14.74l7.91 25.97c0.9,4.04 1.88,8.05 2.69,12.45 31.44,171.28 -82.86,109.22 -348.29,111.49 -49.17,0.42 -122.39,11.57 -126.41,-36.4l12.02 -93.75c3.15,-12.55 -59.06,-2.82 17.87,-34.69zm1158.08 -254.92c135.08,-25.06 88.74,159.78 -22.38,70.17l22.38 -70.17zm-172.69 5.41c34.6,-14.68 52.46,-7.48 77.06,4.45 35.86,135.07 -138.08,106.19 -77.06,-4.45zm-171.62 -4.36c59.11,-33.03 92.9,14.05 84.29,73.66 -70.47,52.54 -102.47,4.89 -84.29,-73.66zm-933.68 -120.36l-4.08 1145.71 1490.42 0.33c19.63,-74.81 18.63,-1083.39 -1.74,-1152.62 -211.96,-5.55 -431.22,-0.45 -644.06,-0.43l-485.04 0.11c-56.78,1.1 -114.44,10.37 -159.63,-20.82l1104.31 -441.08c47.11,-18.73 44.15,-13.99 68.83,-45.29 -86.2,13.08 -568.99,204.86 -697.15,249.42 -239.18,83.15 -461.68,166.58 -671.86,264.67z"/>
   <path class="fil2" d="M2275.82 3137.03c76.44,-61.53 138.74,-121.91 217.23,-184.51 59.13,-47.16 157.68,-144.19 223.62,-173.63 -7.47,100.38 6.45,112.7 43.53,185.96 -29.68,50.68 -475.69,430.5 -572.24,514.5 -81.65,71.03 -297.52,270.84 -347.62,294.04l-469.84 -311.27c-125.43,-85.26 -427.38,-221.76 -292.36,-429.15 59.28,13.73 308.96,184.26 380.47,230.73 64.15,41.69 324.38,215.66 381.73,231.91l435.48 -358.58zm-421.62 703.08l714.07 -632.01c39.09,-39.08 75.93,-63.81 117.31,-104.58 43.34,-42.71 78.81,-76.67 129.17,-105.86 -14.96,-69.86 -51.33,-97.77 -54.91,-173.04 -4.36,-91.72 39.92,-83.32 34.48,-177 -89.73,-32.93 -770.45,-302.29 -803.14,-301.38 -33.82,0.94 -700,462.4 -829.02,549.68 -76.06,51.45 -101.25,45.76 -137.83,140.41 -38.75,100.29 -23.7,237.3 79.79,304.91l750.07 498.88z"/>
   <path class="fil4" d="M8409.6 6276.89c58.67,-218.66 407.41,-484.35 530.34,-674.69 21.39,-33.13 41.08,-85.2 65.07,-113.28 32.58,46.39 12.4,31.67 55.43,53.37 38.84,-43.97 24.75,-58.92 55.43,-93.76l219.01 -11.98c53.06,-37.6 46.66,-19.12 82.82,-77.37 33.07,-53.27 25.69,-60.99 44.96,-104.99 3.32,-4.1 61.59,-16.92 80.39,-91.42 15.79,-62.6 -4.06,-65.18 -3.22,-124.83 16.16,65.19 40.54,77.34 -0.61,166.31 -25.2,54.48 -177.48,262.08 165.04,250.84 51.44,-1.69 31.78,-3.28 81.93,40.29 109.3,94.96 126.33,0.6 189.13,-37.24 42.21,-25.44 60.06,-25.6 66.75,-81.97 -62.37,-33.54 -94.43,-36.38 -154.1,-79.26 -93.8,-67.4 -157.78,-164.34 -228.89,-241.51 -70.56,-76.55 -77.04,-38.45 -75.79,-164.27 89.26,-42.18 182.61,-39.91 233.45,-117.64 73.22,-111.94 -20.76,-249.12 -257.52,-218.92 -103.99,13.26 -202.19,190.71 -196.68,313.29l74.45 23.28c1.27,86.15 -14.17,84.5 -78.06,117.7 -85.73,44.54 -204.19,90.17 -222.2,141.79 -20.59,59 16.34,92.58 -6.98,133.72 -56.44,-108.47 5.12,-182.53 84.95,-213.46 -22.91,-65.09 -39.15,-25.12 -20.6,-129.48 25.5,-143.44 77.14,-290.39 22.12,-396.91 -90.19,-12.17 -124.68,14.52 -128.12,97.06 -3.83,91.81 -6.03,90.36 -55.36,153.93 -68.72,-80.14 31.4,-53.85 -116.12,-107.05 -73.92,-26.66 -62.99,-55.27 -139.73,-79.4 -56.13,114.77 -207.36,174.24 -216.65,351.39 -9.49,181 96.31,319.26 43.52,501.07 -62.13,214.02 -313.04,632.34 -254.59,861.59 63.66,-22.17 23.96,-12.88 60.44,-46.2z"/>
   <path class="fil2" d="M7147.33 8010.57c73.88,26.54 129.39,23.9 195.16,-14.07 68.89,-39.78 67.3,-78.93 109.27,-137.4 56.13,184.08 -244.71,290.46 -304.43,151.48zm-238.07 -222.53l-38.81 -88.11 18.24 -54.94c47.28,-43.18 77.64,-38.77 145.37,-32.27l-124.81 175.31zm518.08 -258.95l-210.31 -0.82c60.85,-175.48 169.4,-85.06 210.31,0.82zm-930.35 -15.85c35.26,147.69 262.48,440.62 366.03,545.22 139.52,140.94 372.68,259.68 648.84,272.87 91.34,-219.55 191.47,-375.31 146.78,-680.48 -36.72,-250.71 -138.22,-414.24 -218.76,-612.21 -73.33,57.44 -96.58,113.39 -194.18,167.11 -126.46,69.6 -174.86,37.92 -273.31,73.42 -48,17.3 -129.83,226.34 -475.4,234.08z"/>
   <path class="fil6" d="M6543.71 4111c46.42,43.06 1098.95,21.73 1147.07,7.81 15.85,-71.18 16.32,-616.43 0.92,-700.13 -112.57,-30.9 -757.6,-10.41 -931.72,-10.45 -294.77,-0.07 -239.67,-83.6 -239.71,471.26 -0.01,68.11 -20.15,190.55 23.43,231.51z"/>
   <path class="fil2" d="M7795.46 6746.6c37.01,-34.77 12.79,-82.79 -4.22,-142.48 -93.99,-329.66 -528.91,-1931.4 -526.58,-1983.19 59.84,0.1 126.78,8.55 181.85,-11.5l-1.91 -157.3 -600.5 -0.11 -1.51 167.77 188.14 2.32c1.76,65.81 -109.25,439.13 -133.92,530.28 -48.6,179.56 -96.09,353.07 -145.06,535.53l-249.99 927.53c-32.17,110.12 -29.09,103.18 -0.49,130.02 80.99,68.88 99.96,-102.86 117.9,-167.35l464 -1701.86 14.55 1511.56c0,83.15 0.42,166.41 0.06,249.55 -0.42,97.25 -30.04,174.32 80.77,167.28 49.62,-106.38 -2.31,-1708.64 19.21,-2003.86 3.4,34.57 54.51,197.56 67.75,248.11l412.38 1529.32c16,60.77 34.38,234.96 117.6,168.39z"/>
   <path class="fil5" d="M8725.96 3658.54l130.76 -4.82 1.82 102.13 -133.63 0.56 1.06 -97.87zm1044.44 -71.06l-135.29 -0.96 1.5 -87.27 126.93 -8.32 6.86 96.55zm-133.65 -260.59l130.33 -1.08 -2.48 95.57 -127.38 -7.06 -0.47 -87.43zm-0.48 -167.49l132.53 -1.57 -6.27 97.95 -126.5 -7.32 0.24 -89.07zm0.59 -498.27l130.38 -0.91 -3.43 94.62 -126.52 -6.88 -0.43 -86.83zm5.17 -170.28l122.65 -2.58 -2.79 100.73 -127.53 -7.24 7.66 -90.92zm121.28 -169.6l0.44 100.53 -127.72 -5.65 0.13 -86.09c30.52,-17.08 83.72,-14.65 127.16,-8.78zm-164.83 -16.95l-3.84 574.05 -687.79 -2.96 0.04 -677.62 700.91 3.71 -9.32 102.82zm36.09 605.26l2.92 -81.79 130.94 -0.33 -7.37 91.75c-33.74,6.05 -109.99,19.98 -126.49,-9.62zm130.23 78.12l-1.06 99.67 -127.91 -5.62 -2.11 -78.05c35.48,-25.38 80.74,-15.47 131.09,-16zm-854.73 718.56l-4.21 -687.69 692.91 -3.17 -1.88 687.73 -686.82 3.12zm722.8 -0.74l0.74 -37.94c33.8,-18.99 86.93,-13.43 132.08,-10.36l5.15 98.25 -128.32 2.24 -9.64 -52.2zm-949.92 35.48l2.95 65.92 1116.53 -0.04c17,-78.75 10.27,-1942.65 7.26,-2213.97 -0.58,-51.43 -0.55,-101.02 0.27,-152.48 0.99,-62.22 8.08,-120.48 -22.79,-154.34 -33.37,-20.67 -969.61,-15.48 -1098.53,-9.35l-5.69 2464.25zm53.27 -241.69l118.78 -10.85 3.58 101.38 -132.43 1.08c-0.84,-17.44 -3.45,-28.3 -1.84,-44.54l7.57 -36.3c0.72,-2.8 2.77,-7.22 4.33,-10.77zm-9.77 -177.65l131.59 0.7 -2.36 101.29 -130.28 -2.38 1.06 -99.61zm0.36 -166.31l130.3 -0.12 0.04 104.29 -131.96 -4.11 1.63 -100.06zm7.2 -156.55c44.41,-17.6 64.77,-12.81 124.16,-10.56l-1.94 103.59 -133.72 -2.64 11.51 -90.39zm-6.11 -104.91l-1.89 -71.76 133.64 0.55 -6.93 100.8 -116.87 -7.47c-1.55,-3.56 -3.56,-8 -4.27,-10.86 -0.72,-2.9 -2.95,-7.6 -3.68,-11.25zm-1.59 -238.43l131.5 1.14 -2.73 100.85 -130.11 -1.55 1.34 -100.43zm0.49 -165.83l131.06 -0.96 -2.26 103.17 -130.11 -2.29 1.31 -99.92zm5.24 -170.68l127.23 2.31 2.12 102.13 -140.67 1.11 11.32 -105.55zm905.76 -164.69l130.23 -1.33 -3.19 106.1 -133.14 -6.52 6.1 -98.25zm-791.59 12.77c28.04,18.58 23.18,23.25 17.29,90.36 -55.53,9.01 -89.97,14.26 -144.87,-5.79l3.83 -96.58c28.91,-6.76 44.33,-10.01 75.71,-7.53 70.84,5.57 41.44,-2.28 48.04,19.54zm787.35 -176.49l136.59 0.99 -4.57 99.39 -132.67 -4.31 0.65 -96.07zm-907.78 -1.73l131.33 1.63 -2.04 87.51c-40.57,19.46 -76.3,14.06 -130.05,12.66l0.77 -101.79zm184.83 -614.04l690.51 0.45 -2.11 688.32 -695.6 0.09 7.2 -688.86zm723.98 445.33l133.14 -1.14 -1.92 106.67 -135.51 -4.76 4.29 -100.78zm-909.83 2.2l134.21 -0.94 -4.42 103.38 -127.8 -0.75 -1.99 -101.69zm909.09 -68.4c-9.05,-132.4 1.51,-100.49 133.83,-101.19l-2.33 104.92 -131.5 -3.74zm-903.1 -101.26l128.67 3.06 0.82 100.85 -138.14 1.35 8.65 -105.26zm904.96 -163.8l130.93 -0.92 -2.62 103.73 -131.6 -5.99 3.29 -96.82zm-913.49 96.56c-10.6,-125.51 11.34,-106.36 137.95,-95.89l-0.06 102.59 -137.89 -6.7zm916.52 -264.48l128.45 1.47 -2.71 104.46 -133.14 -6.93 7.4 -98.99zm-915.57 -1.18l136.12 3.86 0.72 100.49 -139.05 -5.23 2.21 -99.12z"/>
   <path class="fil7" d="M7223.66 9832.3l140.37 -4.24 7.53 439.1 -146.45 -1.37 -1.44 -433.49zm-234.34 1.9l142.68 0.09 4.01 434.7 -141.18 1.08 -5.51 -435.87zm-94.44 4.67l6.51 432.36c-125.11,4.89 -362.02,17.5 -367.46,-211.13 -4.99,-210.28 194.37,-240.8 360.95,-221.23zm569.43 -12.6c176.35,-0.64 319.78,29.88 318.46,220.4 -1.23,177.68 -141.41,224.05 -320.01,215.53l1.55 -435.93zm16.31 516.56c187.14,-0.29 264.13,-24.63 340.8,-149.91 103.3,-168.79 -6.46,-294.76 -50.15,-367.36 326.09,-21.15 200.07,16.29 312.1,45.74l-1.59 -179.33c-149.87,38.36 82.26,50.26 -282.42,53.27 -106.27,0.88 -212.47,1.72 -318.74,2.39l-31.24 -85.34 -79.56 -0.26 -6.9 87.19 -131.74 0.43 -27.72 -81.39 -55.43 0.82c-2.46,3.26 -4.16,8.27 -5.31,11.03l-22.41 73.19 -124.72 -2.36 -27.78 -81.86 -69.22 5.98c-10.7,38.7 -3.67,41.75 -27.68,79.63l-831.53 8.78c-241.07,1.18 -448.1,-78.88 -592.4,-247.34 -41.4,-48.33 -70.17,-115.33 -114.93,-153.69l3.03 892.83c29.12,-30.41 53.89,-88.05 80.53,-126.03 242.9,-346.18 723.02,-304.59 1121.74,-289.62 -35.09,67.85 -151.51,206.93 -32.56,378.79 90.9,131.34 191.4,132.78 379.93,133.05l22.56 48.71c7.88,17.29 0.62,10.5 17.09,33.37 99.73,-1.91 48.07,-29.21 85.07,-83.63l110.86 -0.58 18.13 42.01c22.3,44.07 22.68,42.21 73.25,36.97l33.34 -80.34 110.87 -0.46c28.19,43.93 9.82,83.47 68.3,76.88 63.41,-7.14 20.78,-36.19 56.42,-81.56z"/>
   <path class="fil2" d="M8343.15 7906.99c-19.45,72.4 -29.09,74.7 -68.15,130.65 -90.39,1.3 -89.07,-24.48 -138.13,-65.44l206.28 -65.21zm272.18 -259.74c-183.71,26.34 -301.01,54.45 -462.33,-47.43 -103.17,-65.16 -95.4,-9.53 -228.85,-6.85 -103.04,2.06 -150.23,-22.56 -238.89,-43.61 57.61,330.52 34.12,419.91 -79.26,698.02 -50.16,123.04 217.82,441.91 322.76,490.26 376.43,-205.83 592.64,-235.19 686.58,-1090.39zm-554.68 648.59c49.98,60.84 55.87,45.68 67.87,119.34 -70.38,-37.91 -47.5,-76.76 -173.09,-92.87 -80.28,2.89 -111.09,14.77 -164.56,52.62 -0.23,-61.23 27.72,-86.98 94.93,-101.81 79.52,-17.54 113,9.22 174.86,22.73zm-292.29 -481.15c33.68,20.68 51.52,40.62 89.9,66.48 28.69,19.33 60.72,41.71 80.98,58.77 -124.46,100.42 -171.82,2.93 -170.88,-125.25z"/>
   <path class="fil7" d="M12866.58 6116.27c168.84,-1.22 296.13,109.15 302.72,271.28 5.7,140.24 -127.19,321.7 -261.53,285.08l-41.19 -556.36zm-157.1 353.66c-42.81,-150.7 -51.63,-266.26 78.8,-334.41l11.31 19.56c19.31,50.47 45.55,489.1 45.43,528.34 -191.74,-25.88 -312.35,-190.87 -299.94,-403.82 9.35,-160.38 147.37,-416.76 230.43,-489.41 30.69,353.66 19.02,157.79 -116.92,343.19 -81.92,111.72 -54.79,287.63 50.88,336.56zm104.13 -1004.12c-10.64,-184.28 29.71,-539.97 225.08,-491.72 9.49,104.98 -40.33,192.14 -79.23,269.72 -38.17,76.13 -76.93,179.65 -145.85,222zm40.03 523.8c-9.24,-115.01 -45.85,-267.33 16.15,-365.81 135.88,-215.84 393.62,-757.09 195.66,-956.16 -154,68.3 -276.33,271.42 -307.53,486.55 -21.09,145.43 -5.8,224.47 -2.96,361.57 2.46,118.93 -743.76,1043.02 96.1,1238.36 43.51,244.93 82.73,627.65 -244.95,504.55l42.35 -26.76c165.66,-88.83 75.33,-241.16 -27.19,-252 -187.55,-19.83 -171.38,209.52 -61.08,301.63 125.31,104.65 293.38,38.4 352.6,-63.55 60.46,-104.08 8.82,-322.29 8.65,-456l145.7 -53.48c244.77,-124.32 272.36,-480.34 84.62,-642.78 -123.84,-107.15 -163,-45.81 -298.1,-76.11z"/>
   <path class="fil7" d="M746.74 5595.14l-237.58 3.37 3.61 692.28 406.85 -0.46 -2.37 -1570.2 -414.14 1.6 4.79 101.75c56.35,1.14 112.47,1.33 168.82,0.38 55.27,-0.93 102.02,-15.45 120.69,25.7 -28.61,48.37 -230,20.32 -291.96,21.41l-1.88 97.74c64.85,1.05 264.42,-31.09 295.29,19.43 -14.97,37.41 22.73,20.73 -51.94,29.89l-241.07 -1.79 4.03 96.07c85.42,5.07 222.12,-18.99 290.18,14.41 -16.92,40.94 23.33,21.18 -53.17,31.71 -13.43,1.85 -67.34,0.26 -84.35,0.07 -49.84,-0.55 -99.85,-3.15 -153.15,-0.32l-2.62 98.41c68.04,4.16 256.6,-27.3 293.58,22.57 -15.21,33.81 23.78,18.91 -53.34,27.64l-239.52 0.59 5.06 95.17c54.52,-0.27 109.36,0.57 164.03,-0.25 153.46,-2.31 112.62,2.06 124.16,29.29 -20.05,31.83 5.86,23.02 -138.15,20.98 -51.96,-0.73 -101.99,-2.61 -153.9,3.46l-0.42 92.68c72.29,3.32 249.13,-28.53 294.78,21.46 -20.44,32.1 12.22,18.5 -56.33,24.95z"/>
   <path class="fil3" d="M565.39 8060.43l-17.52 -50.6 61.16 0.69c2.17,2.17 6.18,6.76 8.06,8.7 1.99,2.05 5.65,6.15 8.49,9.21 -39.71,38.78 3.24,23.62 -60.19,32.01zm-104.46 -74.74c24.63,25.14 8.3,11.5 44.83,34.27 -1.84,3.1 -4.84,4.36 -5.58,9.25l-63.05 33.53c-0.23,-62.37 -1.54,-21.22 -13.81,-36.76 2.82,-2.57 7.22,-10.18 8.47,-7.7 1.24,2.44 6.47,-6.16 8.07,-7.91 16.18,-17.67 1.51,7.75 21.07,-24.68zm-156.38 26.36c44.97,-25.26 26.83,-23.11 56.69,-9.23l6.66 59.78c-55.46,-5.18 -34.64,2.18 -63.35,-50.55zm-82.34 -27.37c25.78,27.58 5.31,11.97 43.69,24.96l-16.16 50.92 -58.47 -33.17c-3.05,-1.14 1.19,-10.4 2.59,-7.76 1.35,2.53 6.28,-7.49 8.01,-9.61 22.23,-27.2 -1.65,12.71 20.34,-25.34zm-88.27 -1049.99l549.34 0.56 5.85 986.13 -550.8 1.09 -4.38 -987.78zm448.24 -143.47c55.92,48.82 36.59,33.36 27.45,54.43l-16.52 14.87c-63.29,-18.87 -53.46,-14.6 -10.92,-69.3zm-122.51 0.15l45.39 27.03 -19.7 49.14 -61.57 -36.48 15.1 -15.71c1.63,-1.76 5.68,-6.25 7.15,-7.84 1.43,-1.56 5.76,-3.19 6.83,-7.84 1.06,-4.57 4.34,-5.25 6.8,-8.3zm-133.93 76.94c-9.4,-27.19 -12.3,-37.51 -9.8,-52.34 29.3,-31.1 36.3,-12.89 68.72,0.8 -30.87,59.58 0.26,31.53 -58.92,51.54zm-106.32 -79.5c76.74,66.65 31.21,3.44 31.18,76.52 -38.26,-7.67 -53.65,7.9 -56.33,-34.84 -1.92,-30.68 1.7,-0.92 25.15,-41.68zm-217.76 1206.57c73.62,44.8 78.83,14.33 120.87,95.51l20.83 37.96c0.91,-2.17 3.82,6.47 6.29,9.08l512.75 0.18c23.91,-27.78 25.96,-67.71 59.13,-97.36 28.06,-25.09 56.49,-26.28 90.29,-45.38l-0.02 -1108.66c-19.35,-55.55 -29.43,-16.35 -85.55,-63.73 -28.33,-23.92 -39.44,-55.76 -52.56,-98.29l-536.13 -0.77c-50.08,149.78 -52.14,74.69 -137.56,148.94l1.67 1122.51z"/>
   <path class="fil7" d="M2753.23 9201.85c137.47,-11 294.86,9.4 347.84,110.68 -130.72,56.7 -322.32,35.26 -347.84,-110.68zm612.61 110.04c14.17,-42.39 4.63,-29.21 51.91,-57.1 22.69,-13.38 54.05,-28.36 74.89,-35.94 66.61,-24.21 142.81,-23.51 219.18,-16.05 -26.38,135 -209.34,175.66 -345.98,109.08zm-852.79 -350.85c-34.85,93.88 -1.13,174.4 6.09,267.7 -177.24,99.15 -79.08,271.48 71.69,211.02 -12.11,-48.69 -19.21,-22.52 -49.24,-55.23 -29.17,-31.76 -27.03,-17.61 -7.06,-58.79 71.01,-65.91 158.69,261.59 521.02,162.25 83.78,-22.97 112.73,-58.18 170.59,-78.26 58.83,21.68 91.07,54.78 171.09,78.2 71.62,20.97 146.03,23.29 218.7,6.3 68.71,-16.05 127.84,-47.14 165.36,-84.13 29.08,-28.67 82.51,-115.79 134.61,-81.45 8.6,11.78 22.3,-23.05 9.35,34.17 -9.79,43.25 -51.83,17.16 -61.14,76.03 150.21,65.74 247.69,-116.65 71.3,-210.12 6,-119.33 33.37,-144.31 4.12,-285.79 -39.25,11.42 -0.03,3.72 -55.25,57.06 -68.23,65.91 -193.01,70.21 -284.32,76.84 -254.04,18.45 -211.57,22.08 -373.84,105.9 -299.28,-170.68 -365.46,-62.91 -578.67,-138.3 -124.15,-43.9 -80.68,-98.47 -134.43,-83.42z"/>
   <path class="fil2" d="M4128.07 7106.7l-7.28 -879.29 -682.93 -0.84c-19.92,100.61 178.74,667.14 354.52,842.23 83.82,83.49 193.73,73.51 335.69,37.91z"/>
   <path class="fil8" d="M949.89 9242.61c14.8,-10.81 -3.74,-7.22 31.71,-15.68 225.9,-53.91 95.68,-70.08 190.82,-111.5 8.49,129.96 -131.79,196.14 -222.53,127.18zm-197.18 -201.02c-27.67,-95.3 -6.69,-126.18 95.44,-122.57 -9.51,37.05 -29.22,78.52 -59.85,104.16 -26.87,22.49 9.59,-0.97 -35.59,18.42zm243.57 -188.35c13.27,-46.22 16.64,-47.05 54.15,-67.53 58.78,7.43 71.68,25.6 87.96,74.39l-142.11 -6.86zm-536.84 -5.83c3.72,93.53 191.2,337.44 261.53,405.77 117.24,113.92 276.62,192.94 488.33,202.81 209.52,-468.28 117.37,-526.09 -45.97,-951.04 -70.66,19.86 -37.43,43.36 -154.35,113.76 -80.92,48.71 -146.84,33.45 -203.29,59.07 -34.29,15.56 -89.71,87.92 -145.79,118.7 -56.12,30.79 -120.09,45.54 -200.46,50.94z"/>
   <path class="fil2" d="M1713.16 7080.73c23.34,33.92 192.2,106.08 302.45,-4.87 169.17,-170.22 363.1,-696.68 359.62,-848.5l-654.27 0.42c-29.31,122.89 -8.37,685.94 -7.8,852.95z"/>
   <path class="fil7" d="M10107.14 2104.39c230.54,-36.2 307.06,-77.73 565.05,-30.89 145.57,26.43 374.1,97.56 464.53,168.35l2.09 165.35c-152.47,49.78 -494.89,6.14 -527.35,172.73 67.39,-14.05 33.03,-28.93 105.99,-48.79 156.2,-42.5 377.21,18.44 459.14,-39.98 49.79,-35.5 88.49,-292.93 -18.08,-377.16 -163.98,-129.61 -360.38,-341.25 -461.49,-522.51 -110.31,-197.77 -106.22,-305.71 -139.91,-357.93l-449.98 870.83z"/>
   <polygon class="fil4" points="10059.52,3311.22 11179.44,3315.23 11179.69,2911.93 10061.83,2909.25 "/>
   <path class="fil8" d="M1412.69 9489.32c23.46,-128.43 248.81,-102.41 257.97,25.85 -35.4,-12.81 -62.45,-45.75 -107.15,-55.07 -62.72,-13.08 -108.24,14.55 -150.82,29.22zm264.43 -299.87c40.11,-19.49 89.9,-33.17 144.15,-39.08 -13.71,59.66 -6.47,51.96 -50.22,89.9 -56.65,-6.12 -63.93,-16.48 -93.93,-50.82zm-272.93 -104.94c45.39,17.71 32.92,13.84 70.01,39.44 47.54,32.81 30.09,8.94 51.33,53.12 -106.74,30.66 -118.46,22.82 -121.35,-92.55zm102.99 -176.15c-68.21,1.54 -105.51,-22.78 -166.89,-28.81 13.65,143.76 49.38,228.16 -17.69,414.27 -11.65,32.32 -39,83.32 -44.65,108.15 -17.21,75.7 154.55,378.81 278.79,336.2 116.02,-39.79 266.9,-191.5 332.34,-307.91 65.53,-116.58 131.44,-336.22 143.26,-478.7 -180.14,6.65 -183.5,45.84 -345.51,-42.15 -76.03,-41.29 -94.95,-2.95 -179.66,-1.04z"/>
   <path class="fil9" d="M5271.28 1422.01c309.67,-48.81 372.86,370.23 130.61,439.66 -51.27,-53.89 -138.68,-404.39 -130.61,-439.66zm-80.46 316.77c-27,-71.56 -107.73,-138.92 0.28,-285.68 44.05,32.46 65.17,148.11 80,201.03 18.38,65.57 54.07,158.48 63.03,229.89 -359.66,-15.24 -365.72,-432.63 -209.4,-699.92l60.08 187.24c-145.14,120.74 -151.42,280.52 6.02,367.45zm-79.95 -816.67c-36.32,-61.68 -44.79,-171.95 -36.84,-254.46 6.37,-66.14 40.06,-201.12 127.17,-162.39 35.93,105.92 -42.78,331.05 -90.34,416.86zm238.9 1014.12c72.91,159.17 182.75,468.17 -102.3,443.95 27.21,-49.76 83.15,-48.46 75.05,-135.17 -5.58,-59.7 -57.44,-101.99 -124.36,-92.15 -127.93,18.82 -100.32,189.49 6.32,247.65 126.89,69.21 248.1,-16.27 275.03,-105.85 32.42,-107.84 -52.56,-256.85 -68.01,-369.17 91.53,-62.29 269.62,-137.43 205.69,-395.84 -44.09,-178.19 -179.68,-245.41 -381.58,-200.58 -30.27,-43.27 -78.5,-196.4 -69.07,-260.12 16.38,-110.82 232.56,-571.25 13.64,-821.38 -119.79,36.63 -177.71,264.13 -172.6,431 3.02,98.53 25.77,176.92 50.29,260.72 45.22,154.58 -189.91,435.65 -81.75,759.7 59.91,179.51 178.44,219.25 373.67,237.24z"/>
   <path class="fil10" d="M8644.55 11990.01c99.24,-28.24 545.72,-23.3 657.48,-9.74 14.85,95.37 22.8,318.18 0.49,415.91 -80.12,24.78 -574.46,19.3 -662.33,-2.38 -6.11,-129.17 -14.44,-283.09 4.36,-403.79zm-173.75 535.67l1025.14 3.92 -3.23 -683.5 -1021.26 5.07c16.98,132.03 -29.3,211.09 -25.86,343.98 2.53,97.8 24.72,77.81 31.28,151.35 5.13,57.54 2.27,123.64 -6.08,179.19z"/>
   <path class="fil0" d="M8481.07 792.71l-1.17 -791.94 -624.8 -0.77c22.41,198.19 184.25,629.06 329.5,764.2 78.95,73.46 183.51,47.49 296.47,28.51z"/>
   <path class="fil5" d="M6247.24 10877.1c20.23,-22.83 5.02,5.62 15.75,-29.95l4.4 -108.66c-0.7,-45.12 -11.86,-86.93 21.42,-102.36 29.27,44.19 11.42,175.54 14.9,237.37 97.87,2.93 192.11,3.05 289.98,2.9 326.19,-0.48 288.32,65.41 272.75,-334.34l-1270.56 5.21c-1.27,83.48 -20.61,267.67 13.96,333.42l68.82 -4.09c3.79,-48.77 1.63,-89.97 1.08,-138.4 -0.16,-13.69 0.18,-53.98 3.68,-65.51 11.04,-36.31 -9.8,-14.29 23.35,-29.43 15.2,34.95 11.22,78.53 10.15,124.15 -2.29,97.24 -2.68,114.91 45.29,108.7 40.7,-22.85 23.74,-3.94 34.99,-52.36 11.82,-50.87 -26.89,-147 20.44,-183.23 30.62,46.36 16.37,168.93 16.16,236.14l80.42 -2.15c3.85,-71.28 -12.97,-177.58 14.29,-232.81l18.33 234.39 86.56 -5.08c2.77,-41.2 2.03,-77.06 1.71,-118.08 -0.27,-33.85 -2.64,-82.82 18.13,-111.63 19.87,30.21 16.57,71.56 16.28,111.56 -0.3,41.17 -1.28,78.94 1.28,122.82l78.23 -0.41c1.15,-64.9 -9.01,-152.66 6.28,-214.47l8.8 -21.02c37.57,21.98 14.14,-16.27 24.6,43.89 11.18,64.26 -22.84,139.97 16.99,194.99l41.56 -1.56z"/>
   <path class="fil0" d="M6307.98 781.53c235.58,101.5 309.58,-21.95 422.66,-243.9 60.1,-117.96 155.21,-393.23 176.49,-533.68l-599.57 -3.94 0.42 781.52z"/>
   <path class="fil8" d="M4315.09 7139.84l0.21 121.12c172.29,20.28 646.96,37.91 789.11,-4.43 14.6,-104.71 -0.38,-111.88 -43.25,-171.61 -19.2,-26.74 2.02,15.34 -19.51,-30.11 -64.81,-89.11 -168.32,-22.63 -200.26,-227.05 -19.22,-123.03 4.34,-300.08 -0.41,-432.22l-264.06 4.87c13.85,124.93 28.66,389.88 -14.76,492.24 -63.71,150.19 -232.25,105.44 -247.07,247.18z"/>
   <path class="fil2" d="M2384.56 6484.83c279.25,211.68 738.37,204.39 1038.48,13.86 0.26,-62.23 -43.99,-205.47 -66.18,-271.12l-905.19 0.23 -67.12 257.04z"/>
   <path class="fil3" d="M679.13 8329.09c36.97,-59.55 -13.69,-40.72 39.42,-40.9 35.8,-0.13 7.66,-8.13 29.54,21.46l7.74 18.31c-29.75,22.45 -17.97,33 -76.7,1.13zm-99.37 -71.71c37.88,-53.66 -9.62,-39.17 41.28,-37.69 36.01,1.04 12.09,-0.29 28.61,21.72 1.93,2.57 5.49,13.38 7.98,17.26 -8.49,7.1 -26.05,20.49 -36.79,29.56l-41.07 -30.85zm779.96 -905.39c8.14,-13.74 1.8,-1.85 12.63,-25.57 7.8,-17.08 0.75,-7.25 10.68,-21.53 73.57,8.32 24.47,-19.57 55.45,39.15 -64.97,56.81 -6.45,37.29 -78.75,7.95zm-85.96 -91.75c14.22,-28.88 4.06,-19.54 51.69,-26.85l19.49 52.14 -82.84 -1.81c9.18,-12.96 0.27,-0.37 11.66,-23.48zm-78.2 -19.63c-14.51,-19.74 24.34,-8.13 -32.54,-24.06l24.94 -44.9c0.92,-5.3 4.23,-6.23 6.82,-3.47l52.27 48.43c-4.41,1.53 -10.49,2.61 -13.49,3.8l-25.84 12.04c-2.55,-3.78 -8.25,5.24 -12.17,8.16zm-48.13 -92.76c-55.63,18.95 -24.45,18.42 -78.65,0.05l10.92 -48.96 48.83 -2.42 18.9 51.32zm-178.51 19.46l452.53 315.31 -548.52 804.69c-139.24,-57.78 -107.91,-125.48 -307.55,-127.55 -1.51,2.42 -2.49,6.69 -3.06,8.01l-38.52 54.64c-28.66,-28.68 -36.86,-29.99 -39.21,-54.84 -0.35,-3.65 -1.05,-5.5 -2.36,-7.43l-169.08 0.03c22.79,30.42 17.6,24.6 53.4,48.44l155.32 108.34c65.96,44.6 136.9,102.35 209.81,139.94 78.41,-48.44 78.12,-60.79 194.67,-31.91 43.73,-80.18 108.63,-158.5 161.96,-239.45 50.38,-76.46 106.17,-156.08 158.76,-229.38l320.38 -459.67c-49.08,-98.07 -63.92,-59.2 -34.2,-194.01 -60.09,-70.03 -373.34,-243.74 -420.61,-308.27 -109.68,35.19 -56.28,69.77 -212.1,34 -84.23,148.37 -62.2,57.54 -64.65,312.02l133.02 -172.91z"/>
   <path class="fil8" d="M1776 5856.77c144.93,109.45 249.91,73.99 324.75,-97.97 73.25,-168.3 20.82,-94.33 -27.56,-422.54 -49.63,-336.68 41.35,-748.25 34.28,-1016.41 -517.33,-3.61 -265.07,404.58 -203.71,659.38 125.32,520.44 -153.3,687.23 -127.75,877.55z"/>
   <path class="fil2" d="M3836.79 7191.3c-146.56,422.42 -58.25,636.2 -230.14,897.45l520.85 -1.65 0.49 -911.9c-123.62,15.42 -165.83,14.25 -291.21,16.11z"/>
   <path class="fil8" d="M1241.11 4823.57c-84.09,243.04 -47.74,810.15 -8.76,1105.99 17.19,130.44 31.65,216.15 177.72,224.46 147.35,8.38 243.73,-20.85 260.74,-140.92 29.88,-210.92 62.09,-1021.18 4.91,-1149.46 -3.06,164.18 -8.14,318.92 -40.6,461.33 -21.86,95.91 -76.63,310.58 -194.43,288.66 -190.68,-35.48 -191.82,-583.66 -199.59,-790.06z"/>
   <path class="fil0" d="M8228.95 865.68c-148.38,205.8 -39.78,624.18 -196.58,949.3 -12.89,26.73 2.42,-12.79 -15.89,35.57l464.56 -1.46 0.28 -998.38c-108.94,18.64 -136.71,19.76 -252.38,14.97z"/>
   <path class="fil2" d="M1718.27 8088.84l479.79 0c-177.33,-358.22 -49.51,-715.65 -205.28,-896.57 -135.26,2.03 -153.07,-1.45 -280.13,-23.18l5.61 919.75z"/>
   <path class="fil0" d="M6308.06 1846.56l432.8 3.12c-10.65,-48.3 -45.84,-66.13 -65.51,-213.68 -22.64,-169.81 -21.54,-358.51 -46.37,-538.88 -12.54,-91.14 -39.44,-154.79 -55.25,-232.01 -134.29,8.03 -155.91,-7.16 -265.9,-16.36l0.22 997.81z"/>
   <path class="fil4" d="M908.24 4636.84c70.78,-127.76 119.24,-253.88 67.67,-432.72 -99.66,-345.64 -476.6,-312.08 -549.7,21.58 -41.79,190.74 12.95,291.22 79.56,416.15l402.47 -5.01z"/>
   <path class="fil0" d="M10572.2 6817.43c31.28,71.29 170.78,49.14 262.09,49.31 101.63,0.19 203.25,0.33 304.88,0.2 83.51,-0.11 235.47,24.03 278.01,-34.98 45.82,-63.56 29.32,-224.99 -17.04,-261.68l-48.48 -34.98c-17.21,-16.4 -4.55,-21.18 -42.92,-37.59 -43.15,-18.45 -385.22,-8.64 -446.76,-8.8 -230.37,-0.59 -138.98,-2.26 -244.4,70.45 -46.24,31.9 -50.35,22.5 -55.04,104.49 -2.03,35.49 -3.47,123.7 9.64,153.58z"/>
   <polygon class="fil11" points="5169.11,13095.18 8336.28,13095.18 8336.67,12998.46 5167.77,13001.48 "/>
   <path class="fil0" d="M6906.82 240.43c157.4,55.65 237.79,142.74 462.92,141.73 182.71,-0.81 340.08,-72.86 481.92,-137l-62.72 -244.78 -818.8 -0.24 -63.32 240.29z"/>
   <path class="fil12" d="M5415.73 12953.23c932.07,-3.46 1933.98,17.79 2844.42,0.11l-0.01 -94.4 -3015.68 -1.06 -2.56 71.02c23.99,16.04 -24.3,22.8 75.46,25.99 29.03,0.93 67.79,-1.53 98.37,-1.65z"/>
   <path class="fil11" d="M12201 4646.76c4.7,5.74 16.73,18.25 15.96,25.69 -4.92,47.26 7.41,11.79 -24.58,26 -25.58,-42.06 -20.99,-21.15 8.61,-51.69zm-111.66 22.65c46.11,-21.21 25.73,-31.04 46.19,17.76 -43.2,20.98 -29.09,24.61 -46.19,-17.76zm-44.8 0c-19.48,35.87 1.37,37.57 -44.33,16.37 11.57,-26.59 -17.12,-15.21 16.47,-23.28 27.38,-6.58 8.07,-2.49 27.86,6.91zm-86.97 -785.61l401.56 -2.71 1.88 717.87 -401.05 0.53 -2.39 -715.68zm309.1 -83.98c17.3,-58.09 32.41,-5.26 42.46,10.39 -28.84,16.02 30.34,29.55 -32.93,9.84 -20.25,-6.3 -15.22,-1.08 -9.52,-20.23zm-134.53 -0.4c6.52,21.28 8.56,11.44 -9.38,20.53 -51.09,25.87 -13.99,0.85 -32.71,-9.74 0.12,-0.09 21.43,-78.17 42.09,-10.78zm-96.28 18.99l-31.24 -3.08c-3.54,-11.12 -25.14,-18.93 11.26,-28.19 42.65,-10.86 19.45,5.52 30.83,23.07 -3.94,2.25 -8.48,7.33 -10.85,8.21zm-86.64 936.77l406.21 1.93c15.54,-81.26 24.45,-71.79 95.82,-104.49l0.2 -662.19 -0.92 -152.51c-72.25,-67.47 -38.59,-11.75 -105.68,-111.21l-360.32 -0.33c-35.96,14 -13.8,3.85 -36.71,34.77 -61.6,83.14 -28.56,26.68 -88.92,76.77 0.02,80.76 -7.64,798.42 8.21,810.42 1.74,1.32 5.89,4.86 8.06,6.44 63.6,46.3 73.59,30.74 74.05,100.41z"/>
   <path class="fil1" d="M5723.72 3825.24c-34.71,15.1 -94.29,3.48 -134.49,19.26 -34.62,13.59 -37.4,32.89 -88.12,63.72 -231.67,140.85 31.88,397.19 35.92,404.37 47.1,83.49 52.61,120.45 154.2,151.33 253.13,76.95 355.44,-459.48 238.87,-571.96 -79.8,-77.01 -130.54,-99.71 -206.39,-66.71z"/>
   <path class="fil0" d="M1563.83 10573.06c212.9,41.5 477.34,34.77 694.17,3.63 44.76,-198.82 -156.6,-177.53 -204.67,-272.08 -54.43,-107.06 -27.51,-328.56 -23.12,-456.54l-230.18 3.73c1.06,120.83 27.59,351.3 -26.01,447.93 -46.77,84.32 -259.1,88.87 -210.2,273.33z"/>
   <path class="fil7" d="M12129.8 10207.37c-28.26,-14.41 -16.02,10.65 -49.94,-34.96 -15.07,-20.25 -10.06,-19.63 -19.8,-48.31 83.91,4.95 74.04,-2.51 69.74,83.27zm-138.38 151.22c-66.36,50.43 -168.94,2.03 -162.74,-93.01 69.58,30.29 -25.66,42.11 139.55,81.54 25.92,6.19 12.36,3.56 23.18,11.47zm-144.65 -281.87c19.79,-42.08 12.96,-42.23 66.09,-52.47 39.94,26.98 21.16,5.29 40.86,53.55l-106.96 -1.08zm-53.54 437.83c147.59,0.51 268.7,-63.47 350.6,-142.47 66.58,-64.22 166.57,-193.97 200.83,-298.76 -209.2,-28 -192.31,-99.99 -258.2,-127.36 -53.95,-22.4 -86.77,-7.25 -150.74,-45.25 -45.06,-26.77 -55.19,-54.68 -108.7,-80.76 -68.67,213.42 -211.08,358.58 -33.79,694.61z"/>
   <path class="fil2" d="M8149.32 3565.67c-24.49,86.6 -9.97,292.14 -9.92,392.52 136.18,-1.38 149.61,25.46 249.71,79.97 179.17,97.56 192.15,141.34 214.93,73.99 13.86,-40.96 6.15,-307.78 6.15,-357.37 0,-91.8 25,-325.66 -20.91,-389.47 -71.26,9.92 -18.69,17.82 -89.95,63.3 -131.54,83.95 -220.64,138.91 -350,137.06z"/>
   <path class="fil5" d="M4431.75 7511.56c14.16,40.88 104.14,84.73 136.78,109.64 -23.53,171.43 -196.03,95.01 -203.71,276.46l688.23 -3.55c-3.4,-60.58 -48.55,-104.66 -108.59,-134.29 -58.52,-28.88 -90.98,-59.61 -109.72,-124.77 36.72,-49.22 205.14,-110.96 206.9,-194.2l-0.07 -36.57c-112.83,0.86 -227.64,15.56 -346.46,15.38 -78.32,-0.12 -269.61,-24.91 -321.55,-6.34 18.53,59.29 26.55,39.22 58.17,98.23z"/>
   <path class="fil10" d="M3619.77 1589.22c150.39,0 272.32,121.92 272.32,272.32 0,150.39 -121.92,272.32 -272.32,272.32 -150.39,0 -272.32,-121.92 -272.32,-272.32 0,-150.39 121.92,-272.32 272.32,-272.32z"/>
   <path class="fil7" d="M11369.14 10355.61l-24.83 -65.87c14.06,2.35 54.82,7.43 67.34,12.26 66.35,25.55 18.19,4.09 26.01,37.29l-68.52 16.33zm283.83 183.4c-31.13,-10.73 -64.43,-30.94 -110.29,-21.37 -32.69,6.82 -52.47,30.91 -78.36,40.28 6.69,-93.8 171.5,-112.82 188.65,-18.91zm-86.27 -227.24c21.08,-34.78 28.85,-45.7 88.67,-70.51l-12.67 68.42c-42.63,18.31 -30.87,13.31 -75.99,2.09zm-370.82 -165.17c20.31,223.14 150.59,523.69 351.58,575.35 91.01,23.39 204.17,-193.3 198.19,-242.1 -19.08,-155.73 -75.79,-30.74 -47.61,-384.47 -214.03,31.34 -178.72,-16 -261.95,24.22 -109.85,53.08 -120.12,35.54 -240.2,27z"/>
   <path class="fil3" d="M11132.2 10916.31c-89.64,-16.18 -173.6,-51.62 -279.24,-69.74 -237.21,-40.69 -706.96,-34.29 -868.89,86.73l0.51 115.25c204.96,-29.75 370.63,-37.65 579.96,-10.1 269.2,35.44 347.91,94.17 493.37,120.83l74.28 -242.97z"/>
   <path class="fil0" d="M8838.71 11154.25c152.59,-7.76 393.91,-198.69 1069.81,-105.45l-4.11 -127.96c-368.23,-128.78 -780.49,-136.29 -1148.02,3.49l82.33 229.92z"/>
   <path class="fil2" d="M3476.65 11711.86c118.14,89.36 210.64,43.45 264.08,-84.69 53.28,-127.75 -12.56,-195.03 -27.29,-347.1 -27.46,-283.67 16.23,-544.49 35.99,-815.83 -124.14,-10.24 -269.76,56.95 -270.59,163.81 -0.58,73.69 73.24,259.12 93.47,347.03 109.36,475.16 -120.64,566.94 -95.66,736.79z"/>
   <polygon class="fil13" points="4301.89,10936.72 4510.63,10937.91 4482.82,9675.45 4325.39,9679.24 "/>
   <path class="fil7" d="M4587.16 2090.88c-147.14,-65.69 -355.56,-20.69 -324.79,194.18 24.03,167.8 253.72,226.09 354.54,88.63 112.95,-154 -91.23,-833.51 -52.47,-1049.99 312.69,-22.55 225.81,308.22 219.18,388.93 202.71,-385.69 -205.16,-638.7 -257.14,-636 -55.03,2.86 -29.94,-1.77 -39.9,30.81 -16.05,52.53 103.38,830.85 100.58,983.45z"/>
   <path class="fil7" d="M8429.08 6342.89c-6.92,59.55 -63.61,147.45 -91.44,223.72l-156.6 452.11c-31.15,93.02 -93.94,146.07 -32.81,214.46 111.32,46.17 103.56,-67.97 129.49,-145.67 9.01,-27.01 84.67,-168.83 100.9,-195.39 -0.02,-59.44 -28.86,-83.41 -60.34,-124.14 378.43,-324.49 359.48,-572.98 553.11,-929.66 32.7,-60.23 55.09,-106.3 91.07,-158.19 89.06,-128.47 89.51,-101.22 37.72,-138.67 -46.14,142.93 -198.09,286.26 -297.95,391.25 -29.83,31.36 -61.34,55.33 -91.27,88.55 -184.48,204.7 -86.32,258.76 -181.89,321.64z"/>
   <path class="fil2" d="M3042.4 10851.04c-60.65,224.87 -46.95,651.01 -11.14,901.62 13.94,97.58 15.46,177.11 125.47,195.46 277.22,46.24 241.94,-171.13 254.1,-391.31l2.9 -465.11c-0.85,-20.34 -1.67,-56.43 -4.43,-75.4l-17.89 -62.71c-4.62,183.99 -20.21,524.15 -179.11,563.07 -177.19,-53.23 -160.36,-457.45 -169.89,-665.63z"/>
   <path class="fil10" d="M8668.41 12364.01c56.17,22.37 535.61,18.25 604.26,-0.82 19.39,-49.28 19.82,-305.02 -2.69,-350.29l-515.93 -8.38c-108.57,0.8 -97.58,1.5 -85.64,359.49z"/>
   <path class="fil8" d="M5525.08 10545.9c-131.91,-59.69 -251.23,-97.69 -409.16,-23.18 -113.61,53.6 -195.04,197.95 -86.99,326.62 75.14,89.47 232.21,125.82 384.3,85.26 138.14,-36.84 135.75,-91.97 111.84,-388.7z"/>
   <path class="fil5" d="M9285.61 11733.93c-6.3,-46.7 -17.91,-108.61 18.06,-129.5 35.06,-20.37 86.1,20.84 107.39,49.5 -16.04,61.7 -64.55,81.97 -125.45,80.01zm-195.57 -66.15c16.31,-36.47 65.12,-66.91 94.74,-65.85 64.23,2.29 46.9,75.42 38.57,131.43 -75.86,9.53 -88.77,-27.26 -133.31,-65.58zm261.17 -138.58c4,-55.93 29.1,-79.63 112.59,-73.78l0.07 139.11 -86.96 -34.97c-47.23,-38.83 5.04,0.44 -25.7,-30.37zm-310.33 62.48c-15.94,-60.33 -22.74,-79.83 5.7,-133.59 78.65,-4.17 168.49,58.19 63.73,120.47 -38.61,22.95 -19.4,24.12 -69.43,13.12zm368.71 -214.92c-21.54,53.1 -75.3,72.55 -97.66,67.65 -50.44,-11.05 -36.82,-74.08 -32.03,-127.49 78.08,0.82 95.89,15.39 129.69,59.85zm-317.76 13.86c15.03,-52.12 65.96,-78.55 127.43,-77.91 5.79,48.68 26.51,114.66 -24.36,130.64 -38.69,12.15 -82.18,-29.87 -103.07,-52.73zm-124.06 68.32c0.3,115.62 -15.59,-0.99 -16.6,71.19 -0.54,38.51 8.08,10.91 18.95,65.5 1.74,86.54 79.08,168.02 155.56,201.04 136.79,59.08 192.91,12.98 303.68,-19.95 49.45,-73.81 119.06,-87.87 122.39,-247.41 2.47,-118.28 -53.44,-201.45 -127.68,-253.25 -179.99,-125.57 -467.89,1.77 -456.3,182.87z"/>
   <path class="fil1" d="M11619.8 2591.72c-17.67,112.12 -101,76.01 -140.21,135.51 -52.91,-7.81 -11.78,8.99 -63.19,-23.6 -11.5,-73.2 -56.27,-106.01 -19.56,-215.94 24.75,-74.11 84.91,-92.86 164.54,-90.41 14.59,22.7 25.93,51.01 43.55,88 19.41,40.74 10.48,2.45 18.09,39.66 5.97,29.19 1.08,35.81 -3.24,66.77zm-231.2 234.62c19.55,46.76 16.16,29.48 30.55,69.85l43.17 119.35c29.18,52.9 12.14,30.98 49.56,54.45 30.81,51.13 92.61,59.55 126.27,102.73 -56.57,138.41 -88.72,21.78 -167.95,194.11l528.56 1.94c-34.88,-152.15 -138.56,-85.38 -152.25,-209.91 36.75,-31.22 87.1,-49.08 110.35,-89.93 85.59,-55.22 146.6,-282.17 47.24,-327.8 -46,-87.31 -146.64,-19.98 -169.34,-195.81 0.49,-69.26 0.86,-134.76 3.92,-204.23 9.08,-206.17 2.33,-80.01 24.74,-169.69 -82.95,-16.54 -173.61,-16.13 -256.56,0.46 20.05,90.76 19.3,14.95 18.81,161.09 -65.85,-0.29 -107.6,-23.97 -157.09,11.84 -193.15,14.45 -175.73,429.96 -80,481.55z"/>
   <path class="fil11" d="M12294.49 4820.4c42.08,2.21 22.18,-3.86 45.9,20.66 -35.21,31.6 -14.53,25.86 -52.94,12.43l7.04 -33.09zm507.66 -717.59c30.4,11.01 19.14,-24.44 25.02,23.87 2.02,16.57 -3.22,10.72 -16.26,23.99 -52.93,-46.85 -9.47,-46.77 -8.76,-47.86zm-55.43 -51.02c39.52,51.24 21.47,26.09 -15.7,50.31 -23.95,-28.46 -29.18,16.84 -10.91,-36.64 10.41,-30.47 -1.9,-6.83 26.61,-13.66zm-82.83 -54.96c64.89,-0.59 25.32,38 -0.32,59.07 -25.57,-22.07 -53.7,-58.58 0.32,-59.07zm-189.95 1.25l-3.81 175.91c35.98,-28.22 67.12,-78.73 96.44,-116.78 43.83,13.28 301.58,191.04 326.79,224.18l-409.94 579.51c-77.4,-43.61 -147.33,-135.19 -228.98,-65.2 -60.19,51.6 21.6,-21.19 -13.97,19.13 -44.57,-50.83 9.79,-37.79 -62.04,-43.82 -102.34,-8.58 -63.25,14.46 -78.92,33.36 59,12.93 224.48,141.62 286.91,182.3 62.12,-21.27 64.94,-32.65 154.71,-23.68 23.72,-65.95 453.14,-648.57 457.21,-667.75 -9.79,-54.03 -15.51,-23.66 -25.49,-73.46 -6.5,-32.4 -2.04,-22.28 -4.66,-49.92 -9.62,-101.77 -167.47,-116.41 -301.98,-248.26 -68.86,21.82 -17.98,30.62 -109.27,32.29 -36.29,0.67 8.67,-8.96 -30.76,0.67 -33.01,8.06 -30.95,27.2 -52.24,41.5z"/>
   <path class="fil14" d="M3256.61 3635.05l1203.16 -2.82 3.04 1807.63 -1202 -0.81 -4.19 -1804zm-31.18 1834.09l1267.28 0.68 1.03 -1861.14c-94.57,-23.68 -502.57,-7.75 -630.11,-7.75 -212.57,0 -425.51,-1.08 -637.98,-0.11l-0.23 1868.32z"/>
   <path class="fil9" d="M6079.29 830.63c6.93,41.69 3.42,57.2 -8.79,91.87l-44.93 88.43c-76.37,5.16 -79.01,-13.54 -140.81,-6.32 54.84,89.41 161.77,52.05 198.21,8.4 49.86,-59.73 29.65,-181.65 29.94,-265.45 0.66,-191.96 6.11,-395.82 -1.08,-586.43l-528.28 104.47 -5.72 670.76c-87.13,-53.36 -203.77,-47.82 -227.38,64.27 -25.07,119.06 94.18,203.18 197.65,142.62 90.46,-52.94 63.08,-210 62.81,-326.4 -0.29,-128.02 -1.81,-258.9 1.43,-386.66l465.54 -97.56 1.4 498.01z"/>
   <path class="fil8" d="M9487.98 8290.99c-7.53,-44.6 -10.92,-92.74 9.63,-134.03l1369.98 -6.46 4.51 141.85 -4.96 782.07 -1369.01 -4.26c-13.53,-74.76 -3.1,-141.82 -5.26,-216.55 -2.97,-102.66 -30.34,-80.11 -35.9,-134.56l7.1 -117.19c0.57,-105.47 46.64,-26.04 23.92,-310.87zm1491.39 -2.36l-4.64 -240.04 -1592.06 5.39 -2.31 238.17 2.51 232.37c14.71,10.79 21.1,14.85 37.99,25.73l1.98 151.88c-2.16,0.95 -5.76,2.02 -6.73,2.21l-34.14 0.77 0.12 167.43 -3.78 82.58c45.5,2.67 26.29,4.11 79.29,16.02 -2.54,-3.77 -6.07,-8.1 -8.56,-10.63 -2.4,-2.45 -5.83,-7 -8.78,-9.83l-18.25 -15.08c-29.1,-24.43 3.55,18.02 -30.61,-25.6 28.48,-43.69 37.39,-39.79 79.81,-13.51 -14.46,10.26 -12.06,3.11 -28.17,6.51l-25.86 7c46.08,30.97 43.65,8 55.92,55.43 -42.93,29.15 -47.89,23.18 -82.9,-4.5l-8.69 26.37c1.84,170.53 -21.61,192.38 107.71,192.46 241.9,0.16 1447.17,11.4 1473.89,-17.14 34.41,-74.73 14.65,-730.81 16.26,-874z"/>
   <path class="fil3" d="M1600.72 10690.99c15.54,23.14 10.56,34.73 37.82,70.01 69.14,89.49 124.89,101.13 154.26,130.72 -33.78,122.03 -117.15,99.95 -153.77,159.8 -6.46,10.55 -19.67,57.79 -21.89,73.08 170.68,2.64 345.78,2.74 516.49,1.75 62.11,-0.36 83.55,14.02 67.77,-26.67l-54.67 -71.1c-37.01,-29.71 -92.01,-27.61 -131.1,-123 27.65,-38.06 89.49,-60.41 123.19,-89.53 29.58,-25.55 65.69,-72.64 83.73,-124.73 -203.32,19.24 -420.49,22.02 -621.83,-0.33z"/>
   <path class="fil7" d="M5448.53 3329.7c-37.57,-20.9 -17.95,-10.74 -45.15,-34.47 -17.15,-14.96 -13.33,-17.19 -37.68,-31.31 -79.89,-46.33 -231.31,-18.8 -256.12,117.81 -34.73,191.29 190.54,278.64 300.16,158.96 92.56,-101.06 192.11,-687.62 283.18,-829.62 267.4,59.97 60.22,360.4 54.52,374.33 245.51,-152.49 105.65,-592.29 -26.8,-600.82 -34.83,42.98 -238.98,738.02 -272.1,845.11z"/>
   <path class="fil15" d="M8535.38 11667.78c74.5,-60.94 144.75,-95.51 121.85,66.67 -35.84,-0.69 -50.99,-4.03 -75.25,-18.97 -18.67,-11.5 -46.02,-47.3 -46.6,-47.7zm176.48 62.42c-3.02,-53.97 -19.19,-108.48 30.67,-117.43 36.31,-6.52 76.72,39.4 91.04,55.01 -28.96,40.92 -52.77,61.85 -121.71,62.42zm59.22 -187.14c15.12,-48.45 47.98,-68.7 102.34,-60.22l-0.32 113.96c-56.12,7.05 -80.65,-11.93 -102.02,-53.74zm-278.54 -57.76c49.22,-0.87 87.79,13.26 103.15,57.76 -10.35,51.73 -44.95,60.83 -106.23,66.79l3.08 -124.55zm44.7 -66.97c24.44,-37.57 52.22,-60.72 113.43,-61.48 8.88,37.8 26.52,104.64 -22.07,116.12 -24.45,5.77 -75.82,-27.95 -91.35,-54.64zm288.02 0c-43.08,64.79 -140.75,107.42 -114.66,-58.46 60.14,-12.32 95.1,20.16 114.66,58.46zm-291.36 363.9c339.3,124.1 369.88,-134.05 436.21,-186.61 -10.87,-54.59 -19.49,-26.99 -18.95,-65.5 1.01,-72.18 16.9,44.43 16.6,-71.19 -50.66,-13.76 -12.75,13.57 -50.94,-49.23 -32.94,-54.16 -65.14,-92.78 -131.21,-117.88 -176.88,-67.2 -402.25,58.02 -373.43,289.87 14.14,113.71 61.83,128.49 121.71,200.54z"/>
   <path class="fil3" d="M8396.11 9148.55c-65.41,203.6 -96.38,558.34 -36.11,782.18l182.53 -0.9c80.44,-296.5 -17.22,-620.02 -18.58,-755.29 -39.83,-39.45 -26.2,-47.03 -73.25,-75.63 -21.4,13.82 -31.71,26.28 -54.58,49.63z"/>
   <path class="fil6" d="M2656.28 8824.99c7.75,-221.16 17.15,-403.84 -220.02,-403.14 -235.8,0.69 -232.76,178.92 -221.11,405l441.13 -1.86z"/>
   <path class="fil6" d="M4124.27 8824.26c9.29,-217.09 19.36,-403.59 -218.95,-402.76 -236.84,0.83 -232.94,181.65 -221.03,405.78l439.98 -3.01z"/>
   <path class="fil2" d="M3145.49 8827.22c11.84,-211.53 15.83,-409.2 -224.3,-406.18 -234.39,2.94 -222.36,187.14 -216.65,404.41l161.3 1.61 180.16 -0.04 99.49 0.2z"/>
   <path class="fil2" d="M2168.73 8822.69c0.66,-211.53 21.39,-398.57 -217.49,-401.58 -235.56,-2.97 -242.74,191.12 -222.83,406.16l440.32 -4.58z"/>
   <path class="fil2" d="M3636.25 8821.06c1.15,-208.62 21.07,-396.44 -216.15,-399.98 -240,-3.57 -237.59,193.82 -224.79,406.65l440.94 -6.67z"/>
   <path class="fil12" d="M7272.74 9280.62c97.79,-39.24 191.23,-171.03 145.78,-336.2 -87.83,-319.18 -522.53,-377.2 -512.47,-722.01 1.91,-65.52 14.63,-28.22 -33.52,-75.53 -41.81,-41.08 -16.77,-31.63 -71.77,-46.64 -66.18,354.53 125.38,434.56 317.4,576.58 76.24,56.39 180.58,137.32 192.63,263.02 14.06,146.76 -99.15,213.59 -162.78,276.01l96.57 -1.68 28.15 66.43z"/>
   <path class="fil12" d="M5977.83 11451.29l1569.44 5.32c-136.59,-36.61 -667.87,-168.14 -787.09,-166.1 -118,2.02 -691.24,159.06 -782.35,160.77z"/>
   <path class="fil16" d="M3621.72 3051.86c145.18,-1.27 162.39,11.92 242.78,76.36 64.49,-73.09 119.11,-78.9 248.31,-76 -20.7,-60.72 -192,-398.1 -235.32,-429.08 -66.26,12.94 -246.54,398.7 -255.77,428.72z"/>
   <path class="fil17" d="M5041.64 7054.81c21.53,45.45 0.31,3.37 19.51,30.11 42.87,59.73 57.86,66.9 43.25,171.61 -142.15,42.34 -616.82,24.71 -789.11,4.43l-0.21 -121.12c-85.5,82.77 32.34,324.19 116.66,371.72 -31.62,-59.01 -39.64,-38.94 -58.17,-98.23 51.94,-18.57 243.23,6.21 321.55,6.34 118.82,0.18 233.63,-14.52 346.46,-15.38l0.07 36.57c24.08,-17.34 30.66,-19.21 54.02,-69.79 15.4,-33.34 13.83,-42.67 22.23,-72.7 35.54,-127.08 41.31,-12.6 76.06,-127.63l-50.04 18.68c6.58,-62.4 -9.7,-91.78 -45.38,-137.93 50.13,-25.03 32.71,0.48 48.92,-62.82 -25.54,18.46 -27.96,28.83 -45.46,41.22 -34.27,24.26 1.92,33.33 -60.35,24.92z"/>
   <path class="fil7" d="M10348.14 2810.61l539.35 -0.55c18.2,-263.61 -13.32,-203.55 -261.07,-203.36 -274.52,0.21 -307.6,-56.98 -278.27,203.91z"/>
   <path class="fil18" d="M2690.09 1973.88c78.51,20.75 374.56,17.48 458.79,6.58l13.45 -222.31c-107.03,-13.49 -283.12,-9.63 -395.74,-7.31 -43.7,0.9 -67.09,-6.42 -75.4,28.61 -0.53,2.21 0.14,6.56 -0.1,9.04l0.7 31.94c-0.19,3.9 -0.57,7.81 -0.85,11.77l3.5 112.78c-2.41,59.5 -7.2,-28.08 -4.34,28.91z"/>
   <path class="fil9" d="M4775.95 2754.51c-40.43,-24.66 -72.34,-60.48 -148.8,-43.16 -51.01,11.56 -91.01,56.12 -94.75,115.98 -7.66,122.35 140.72,192 225.94,103.21 65.64,-68.39 110.53,-537.13 134.5,-667.74 125.96,-11.55 171.87,14.73 172.04,-179.76 -58.7,-3.7 -164.65,-5.59 -185.18,40.87l-103.76 630.61z"/>
   <path class="fil9" d="M4486.45 347.98l-135.16 650.2c-83.96,-51.62 -214.18,-99.66 -245.72,47.26 -27.37,127.49 116.07,218.79 215.87,132.1 64.4,-55.94 139.56,-534.12 160.14,-658.72l157.23 -19.49 29.67 -163.07 -182.03 11.73z"/>
   <path class="fil19" d="M8409.6 6276.89c39.87,-10.95 8.5,-16.1 37.61,1.23l-18.12 64.77c95.56,-62.88 -2.6,-116.93 181.89,-321.64 29.93,-33.21 61.45,-57.19 91.27,-88.55 99.87,-105 251.81,-248.32 297.95,-391.25 51.78,37.45 51.34,10.2 -37.72,138.67 -35.98,51.89 -58.37,97.96 -91.07,158.19 -193.63,356.68 -174.68,605.17 -553.11,929.66 31.48,40.73 60.32,64.7 60.34,124.14l37.21 -47.34 -51.15 -67.62c31.74,-57.56 83.94,-90.12 122.39,-131.2 39.3,-41.99 85.28,-92.32 118.41,-145.58 167.16,-268.78 237.89,-623.02 431.92,-870.12 26.92,-34.27 32.55,-38.12 55.03,-70.34 23.45,-33.61 34.01,-64.08 51.16,-82.02 78.91,0.65 148.64,-15.01 199.37,11.25l-8.07 -52.59 -219.01 11.98c-30.68,34.85 -16.59,49.8 -55.43,93.76 -43.03,-21.7 -22.85,-6.98 -55.43,-53.37 -23.99,28.08 -43.68,80.15 -65.07,113.28 -122.93,190.34 -471.67,456.03 -530.34,674.69z"/>
   <path class="fil20" d="M9072.97 4322.96c-58.41,-39.46 -315.71,-120.59 -306.29,110.6 1.61,39.6 11.38,65.62 22.28,104.81 19.39,69.72 -4.3,40.89 44.17,81.55 65.35,54.82 99.49,55.52 199.6,49.52 29.71,-53.21 40.95,-97.33 38.19,-157.27 -2.81,-61.07 14.53,-123.82 2.05,-189.21z"/>
   <path class="fil0" d="M4276.68 9211.58c-3.32,74.81 6.15,150.01 11.43,224.7 9.74,137.64 -4.59,103.02 55.78,183.2 115.9,9.29 166.54,-13.98 175.88,-124.81 6.97,-82.69 14.74,-181.67 16.56,-265.91 -85.17,-105.6 -177.18,-78.88 -259.65,-17.17z"/>
   <path class="fil21" d="M10224.53 11909.48c-29.22,-37.54 -5.82,43.46 -25.01,-52.6l-8.38 -164.02c65.04,11.28 107.11,31.21 111.11,101.59 3.96,69.67 -28.85,92.08 -77.72,115.03zm-55.43 -0.51c-186.16,-51.23 -78.71,-285.92 -15.61,-338.07l1.32 83.03c-61.16,48.08 -78.5,55.68 -53.75,154.94 33.56,-58.79 -5.54,-65.62 54.18,-100.2 18.44,42.63 35.32,156.35 13.86,200.3zm-0.42 -475.12c-2.69,-94.15 -0.2,-164.77 86.93,-186.44 -5.62,53.52 -11.42,68.86 -34.55,112.61 -20.3,38.4 -29.91,52.14 -52.38,73.83zm16.88 208.29c-16.23,-158.89 15.67,-139.89 64.72,-253.94 38.27,-88.98 47.58,-148.44 27.14,-248.41 -76.21,3.13 -117.57,84.31 -132,173.67 -25.97,160.81 27.1,105.09 -54.54,248.88 -102.79,181.06 -98.42,311.56 88.83,381.27 10.25,102.14 45.85,208.75 -86.83,191.45 29.87,-17.25 47.62,-14.19 40.3,-65.04 -5.19,-36.1 -17.89,-48.5 -57.58,-41.27 -127.88,23.29 46.66,220.53 124.9,99.42 33.04,-51.15 11.29,-124.17 13.08,-183.22 67.72,-41.16 135.68,-41.84 132.26,-166.07 -2.79,-101.41 -60.57,-131.55 -160.3,-136.74z"/>
   <polygon class="fil13" points="8379.29,10741.48 8523.36,10741.24 8518.22,10050.23 8381.49,10049.7 8379.32,10115.67 8379.17,10184.96 8379.13,10281.97 8379.03,10600.71 "/>
   <path class="fil15" d="M2504.98 9841.29c-230.45,-11.09 -348.97,-190.54 -321.79,-369.48 13.33,-87.77 125.29,-417.68 -106.13,-501.22l-24.09 78c188.68,244.85 34.34,322.05 79.24,578.56 28.39,162.19 162.34,348.99 345.62,319.07l27.16 -104.92z"/>
   <path class="fil5" d="M1064.29 10276.09c166.17,-158.63 80.38,-423.75 -54.84,-549.42 -76.63,-71.22 -136.7,-107.33 -199.2,-188.46 -106.28,-137.95 -2.23,-240.18 -133.99,-237.61 -114.36,351.28 375.18,338.69 386.53,676.15 4.96,147.34 -42.99,172.9 -104.37,249.77l105.87 49.56z"/>
   <path class="fil2" d="M3170.73 8485.87c57.16,-61.14 41.11,-105.23 221.53,-128.37 -29.49,-315.97 -449.68,-242.04 -430.38,-1.81 164.65,52.02 115.38,24.03 208.85,130.19z"/>
   <path class="fil2" d="M2412.96 8341.82c-50.27,-270.13 -407.51,-260.12 -438.13,18.07 112.1,6.95 179.69,46.41 211.49,137.15 75.29,-92.6 51.78,-95.09 163.7,-128.26l62.94 -26.96z"/>
   <path class="fil2" d="M3871.94 8341.82c-48.66,-264.64 -403.1,-264.57 -438.12,15.33 155.47,17.51 147.04,44.94 221.94,128.96l13.1 -17.71c90.6,-123.93 121.58,-70.8 203.07,-126.58z"/>
   <path class="fil2" d="M2533.76 8370.98c103.27,32.61 100.37,63.45 150.06,125.3 17.67,-48.69 40.92,-77.1 82.75,-101.74 52.55,-30.96 92.81,-23.98 133.91,-52.72 -46.26,-257.94 -391.15,-264.56 -437.54,0l70.82 29.16z"/>
   <path class="fil12" d="M7605.33 7286.18c29.92,-17.21 12.79,-8.26 37.08,-29.78 63.36,-56.14 157.65,-147.41 246.96,-142.36 -11.63,98.82 -86.98,174.07 -68.29,299.53 21.44,143.89 115.23,146.05 209.86,119.72 -48.73,-54.03 -116.53,-70.26 -109.1,-188.73 6.27,-99.88 64.71,-128.71 49.65,-249.98 -110,-162.64 -341.52,29.23 -403.15,111.48l36.99 80.12z"/>
   <path class="fil9" d="M12884.28 8261.16l90.41 -553.43 155.07 -22.25 19.92 -163.88 -167.38 18.68c-50.66,72.8 -84.15,505.33 -117.64,635.26 -41.27,17.63 -172.1,-95.9 -228.67,41.4l-14.63 28.55c-19.68,209.31 218.44,226.4 261.41,49.24l1.5 -33.56z"/>
   <path class="fil18" d="M2713.41 1579.11c-76.93,31.87 -14.72,22.14 -17.87,34.69l-12.02 93.75c4.02,47.96 77.24,36.82 126.41,36.4 265.44,-2.27 379.73,59.79 348.29,-111.49 -0.81,-4.4 -1.8,-8.41 -2.69,-12.45l-7.91 -25.97c-0.74,-7.44 -2.41,-9.25 -4.62,-14.74l-429.6 -0.18z"/>
   <path class="fil5" d="M5147.45 6988.67c-16.22,63.3 1.2,37.79 -48.92,62.82 35.68,46.15 51.96,75.53 45.38,137.93l50.04 -18.68c34.47,-147.06 94.41,-265.29 42.02,-438.04 -50.45,-166.38 -135.61,-181.68 -321.39,-198.53 -28.1,26.1 -14.06,16.4 -55.26,28.4 -2.91,61.15 -13.54,150.94 13.64,196.7 21.29,-47.83 7.15,-89.92 43.88,-125.74 85.46,-36.19 186.64,8.3 224.7,82.94 51.79,101.55 14.74,184.99 5.9,272.2z"/>
   <path class="fil22" d="M2258 10576.69c-216.83,31.14 -481.27,37.87 -694.17,-3.63 2.97,57.93 10.08,68.23 21.46,116.35 171.69,11.66 505.69,41.26 652.35,-6.93 0.99,-3.83 2.64,-8.49 3.43,-11.36l16.94 -94.44z"/>
   <path class="fil8" d="M9624.34 12047.21c-46.74,55.73 -49.44,20.18 -103.01,50.15l-0.15 180.16 69.9 33.7c63.46,4.6 111.16,62.61 179.59,79.38l-4.64 -417.97c-52.38,19.7 -80.27,59.13 -141.69,74.57z"/>
   <path class="fil23" d="M6843.21 9299.66l48.42 89.73c23.61,-25.76 7.46,11.09 17.92,-49.88l37.65 -408.96 -280.55 25.29c-75,22.58 -72.42,292.73 -74.52,383.77 -247.87,-69.98 -138.06,219.03 -17.41,121.33 51.82,-41.97 43.05,-287.3 63.74,-367.81 0.9,-3.5 3,-8.26 3.82,-11l273.95 -48.57c-0.02,57.11 -8.12,105.69 -12.49,157.05 -12.95,152.36 -5.97,117.44 -60.54,109.04z"/>
   <path class="fil15" d="M2271.44 4029.87l-109.23 31.85 -4.22 78.92c91.26,-0.85 102.46,-33.19 181.25,-39.97 57.32,37.53 82.11,98.97 151.05,111.05 30.26,-101.75 4.6,-84.77 -61.51,-152.07 53.35,-73.72 117.5,-14.37 124.35,-157.65 -86,20.75 -100.4,56.31 -186.17,83.43 -57.12,-40.22 -86.49,-125.3 -138.58,-157.82 -61.84,99.53 31.65,113.85 43.07,202.26z"/>
   <path class="fil24" d="M10030.51 2129.87c76.76,-17.22 239.37,-394.19 280.82,-477.99 42.98,-86.91 82.15,-160.84 126.23,-248.56 96.92,-192.85 118.11,-189 96.84,-261.94 -0.89,-3.03 -2.85,-7.97 -5,-11.59 -71.35,41.02 -35.19,51.3 -70.26,116.79 -12.21,22.79 -22.6,23.65 -38.75,56.85 -14.2,29.2 -11.55,43.2 -26.2,70.58 -14.09,26.33 -21.66,22.77 -39.12,58.26 -13.22,26.88 -11.73,39.17 -28.03,68.1l-255.11 507.36c-22.43,34.23 -62.4,61.68 -41.43,122.13z"/>
   <path class="fil25" d="M2048.21 10154.93c42.02,-68.67 -12.64,-115.5 96.18,-113.56 165.61,2.95 214.05,222.9 86.16,363.88l69.81 145.94c42.27,-138.28 109.57,-231.75 58.67,-412.95 -33.45,-119.06 -170.11,-220.39 -310.82,-147.15 -14.84,30.84 -14.08,43.63 -14.61,83.27 -0.19,14.43 1.33,37.63 3.97,51.8 5.3,28.41 2.46,16.33 10.64,28.77z"/>
   <path class="fil26" d="M1272.23 4361.71c85.35,-13.49 103.95,-59.46 180.08,-87.04 81.6,33.19 85.94,65.63 167.48,81.76l-10.1 -98.14 -75.73 -27.37c31.78,-98.62 90.94,-28.35 88.3,-188.16 -71.61,27.6 -91.47,93.69 -169.96,124.01 -75.23,-29.69 -96.99,-94.4 -170.96,-125.81 -4.38,161.31 56.89,88.38 91.51,188.81 -125.49,71.94 -66.78,-0.27 -100.64,131.94z"/>
   <path class="fil21" d="M10023.22 3352.89c17.04,57.53 153.52,34.58 270.6,34.58l637.48 0.01c50.84,0 101.74,-0.26 152.56,0.03 158.09,0.91 123.23,-2.08 132.57,-34.62 -40.39,-20.06 -1158.55,-18.71 -1193.2,0z"/>
   <path class="fil21" d="M5277.17 9307.14c-47.27,38.54 -25.38,423.65 -24.99,503.65 0.37,76.12 -21.94,467.32 24.99,500.51 40.89,-24.83 30.42,-55.1 29.22,-111.83l-0.6 -791.47c-0.12,-58.5 9.96,-72.9 -28.62,-100.86z"/>
   <path class="fil21" d="M10022.29 2853.99c23.92,53.27 211.26,25.89 271.53,25.91l860.34 0.9c65.37,-5.97 35.6,5.59 62.38,-26.81 -3.7,-2.29 -9.26,-9.46 -11.68,-5.87 -2.42,3.58 -8.51,-4.33 -11.93,-5.25 -51.55,-13.86 -65.04,-7.95 -123.05,-6.86 -178.49,3.36 -1003.94,-18.69 -1047.59,17.98z"/>
   <path class="fil12" d="M8818.3 8297.37l2.76 -0.89c10.6,-139.35 -6.18,-424.38 -192.64,-442.26l-28.65 113.43c41.35,52.1 61.49,39.62 92.43,104.78 18.97,39.95 30.04,97.19 32.32,145.87l1.03 71.36 -12.96 276.31c-16.91,21.11 -22.8,16.53 -18.03,66.82 5.97,62.94 -8.35,26.29 29.79,55.49 -1.35,40.82 4.21,14.59 -15.27,18.53 6.89,63.25 15.62,110.75 49.75,157.97 75.28,104.16 30.4,127.64 171.14,231.66 38.62,28.55 104.13,39.21 139.06,69.42l106.22 -0.17 -18.19 -92.9 74.7 -58.23c-70.87,-4.1 -91.2,-0.28 -165.39,-15.75 -153.02,-31.91 -105.36,9.2 -120.04,-63.1 -23.53,66.77 -6.62,23.2 -33.99,53.23 1.57,-74.29 -3.6,-85.03 -41.8,-119.13 -6.38,77.68 5.11,80.67 -29.08,118.39l1.07 -122.03 -42.92 -12.1c50.23,-38.21 23.14,6.98 38.08,-41.96l-38.1 -35.6 -54.56 -4.07c22.92,-66.69 -0.98,6.23 47.16,-56.41l-35.73 -165.58c-7.33,-16.84 -5.48,2.88 1.16,-17.88 32.33,-101.17 32.31,-43.89 60.67,-235.2z"/>
   <path class="fil15" d="M1272.16 8671.8c79.1,-13.34 107.95,-103.28 209.1,-120.87 -2.37,97.76 -136.85,344.58 101.42,321.28 -25,-87.69 -78.64,-57.08 -61.97,-167.13 9.58,-63.29 60.42,-122.42 21.41,-183.09 -73.31,-102.93 -329.64,43.82 -269.95,149.82z"/>
   <path class="fil5" d="M10265.52 7274.75c149.61,145.59 167.67,141.47 377.45,43.77 -22.88,-62.45 -141.66,-134.92 -166.81,-134.47 -10.02,0.18 -159.46,49.19 -196.25,76.37l-14.39 14.33z"/>
   <path class="fil5" d="M9627.53 8008.78c67.14,3.69 201.02,24.21 248.22,-16.18 34.44,-29.47 82.48,-121.76 89.77,-166.77 -73.78,-3.61 -174.71,-10.52 -234.83,7.06 -35.69,33.44 -96.2,120.44 -103.17,175.89z"/>
   <path class="fil27" d="M9601.7 5469.49c40.07,173.83 105.03,206.56 212,386.13 40.93,68.71 69.7,91.47 134.14,133.73 -15.6,-53.36 -15.54,-26.15 -29.7,-69.45 75.31,17.45 98.34,43.79 151.9,12.38l-36.41 -32.1c-99.26,-61.23 -115.31,16.93 -187.61,-103.33 -119.97,-199.56 -112.48,-331.85 -244.32,-327.35z"/>
   <path class="fil9" d="M9128.53 7204.77c12.55,34.91 -2.31,9.05 15.05,33.65l372.03 5.74c-17.12,-56.93 -69.62,-46.04 -131.09,-72.56 -93.54,-40.36 -45.6,-51.76 -89.2,-122.18l-188.38 25.75 21.6 129.61z"/>
   <path class="fil5" d="M9522.89 7538.05c29.58,26.98 139.14,115.67 176.22,118.8 31.12,2.63 181.09,-55 214.44,-77.23 -20.45,-29.67 -129.74,-123.3 -173.26,-124.9 -41.33,-1.52 -189.54,60.43 -217.4,83.33z"/>
   <path class="fil5" d="M10253.92 8008.65c32.57,-49.97 88.32,-106.79 103.36,-186l-235.73 3.39c-31.59,50.81 -90.47,118.85 -104.57,183.76l236.94 -1.15z"/>
   <path class="fil8" d="M9900.12 7392.98c27.09,61.92 8.9,25.34 83.22,81.81 37.07,28.17 37.35,48.16 87.45,48 21.7,-0.07 76.81,-21.86 106.28,-31.77 6.87,-2.31 42.8,-14.32 49.96,-17.83l44.93 -32.15c-25.42,-39.39 -125.4,-120.05 -169.44,-119.1 -28,0.61 -168.67,58.49 -202.4,71.03z"/>
   <path class="fil5" d="M10652.28 8005.82c29.2,-48.48 86.19,-125.86 101.29,-181.15l-238.01 3.93c-34.84,37.34 -100.28,133.62 -109.11,181.77l245.83 -4.55z"/>
   <path class="fil28" d="M4001.03 10240.65c72.07,-27.15 93.94,-36.25 106.57,-119.24l-160.82 72.23c-47.5,-48.93 -68.16,-94.59 -108.51,-132.51 -29.11,113.16 13.52,78.28 43.8,168.8 -43.13,7.93 -63.87,10.08 -92.99,32.13l-5.36 62.02 149.2 -40.94c46.68,44.68 51.41,59.6 116.93,95.42l18.08 -56.89 -66.9 -81.02z"/>
   <path class="fil5" d="M10631.31 7136.16c6.79,8.61 107.55,94.56 125.75,105.73 54.41,33.4 112.77,-4.32 170.57,-25.72 0.53,-40.96 -32.26,-138.87 -51.77,-173.63 -49.54,7.01 -213.19,61.7 -244.56,93.62z"/>
   <path class="fil29" d="M5884.76 1004.61c61.8,-7.22 64.45,11.48 140.81,6.32l44.93 -88.43c12.21,-34.67 15.72,-50.18 8.79,-91.87 -258.85,-117.17 -227.54,132.35 -213.35,156.39 13.18,22.33 7.97,11.74 18.82,17.59z"/>
   <path class="fil30" d="M9478.42 8009.88c32.54,-69 81.99,-106.42 97.42,-184.3l-258.46 -0.89 3.83 185.43 157.22 -0.24z"/>
   <path class="fil12" d="M3922.69 8341.82c73.42,46.35 108.83,6.03 200.64,105.82l0.24 -298.35c-117.95,-9.16 -189.73,90.06 -200.88,192.53z"/>
   <path class="fil28" d="M3353.19 10236.57c-58.03,31.22 -81.01,71.2 -140.89,104.34 -53.88,-33.66 -100.48,-67.84 -133.43,-108.58 -19.04,95.66 22.4,95.24 71.33,146.64 -53.37,65.97 -73.49,-10.45 -78.24,118.54 63.3,-14.14 88.13,-44.6 140.66,-67.22l137.24 69.86c10.23,-107.05 -17.08,-55.79 -73.6,-121.17 51.19,-63.38 76.28,-34.21 76.93,-142.4z"/>
   <path class="fil12" d="M1727.94 8439.72c192.39,-132.78 111.12,-48.81 197.57,-97.9 -11.53,-115.25 -83.85,-187.28 -200.31,-197.31l2.75 295.21z"/>
   <path class="fil19" d="M1283.94 4480.26c-1.19,-71.8 -11.56,-76.78 54.93,-94.47 62.04,-16.5 189.58,-16.96 243.86,2.86 54.08,19.75 39.26,27.41 36.24,90.76 -146.65,-7.46 -178.52,-14.59 -335.03,0.85zm-11.71 -118.55c-14.15,65.24 -18.74,69.89 -7,147.06 64.49,2.53 111.25,-20.6 187.14,-20.26 97.96,0.44 120.1,25.97 177.35,13.13l15.4 -68.99c0.05,-7.93 -6.25,-41.27 -6.52,-45.28 -4.01,-58.81 35.97,-98.33 -28.89,-129.08l10.1 98.14c-81.55,-16.13 -85.88,-48.57 -167.48,-81.76 -76.13,27.58 -94.74,73.55 -180.08,87.04z"/>
   <path class="fil27" d="M2975.91 9852.39l0.06 -90.71 -107.42 26.89 -1.54 386.44c-52.87,-12.66 -74.69,-8.69 -118.02,4.18 -15.31,48.32 -15,73.98 0.9,121.58 198.91,62.18 127.05,-102.67 141.29,-410.94l84.73 -37.44z"/>
   <path class="fil27" d="M10644.83 11367.84l-5.19 -99.28 -101.69 21.74 2.74 388.68c-60.02,-6.19 -131.87,-22.27 -138.33,58.53 -5.98,74.87 72.94,112.74 127.72,70.21 49.05,-38.07 24.75,-325.68 30.22,-414.16l84.52 -25.73z"/>
   <path class="fil5" d="M10909.74 7822.75c-26.46,32.71 -102.03,137.86 -113.71,185.71l247.29 0.43 -9.7 -187.03 -123.89 0.9z"/>
   <path class="fil27" d="M9504.67 674.74l-5.94 386.97c-42.43,-2.7 -66.62,-12.35 -109.48,1.13 -86.4,167.8 102.03,181.88 125.5,84.36 16.51,-68.62 0.32,-281.6 5.75,-370.95l81.03 -24.9 4.12 -99.24 -100.98 22.64z"/>
   <path class="fil5" d="M9264.39 7635.06c2.64,57.23 28.45,117.06 61.12,161.84l210.3 -74.39c-14.6,-39.19 -140.46,-202.95 -271.42,-87.45z"/>
   <path class="fil5" d="M2129.68 4267.6c272.49,-0.27 212.63,53.64 336.92,60.52 7.91,-72.63 21.86,-76.39 -39.48,-107.19 -102.29,-51.36 -300.67,-116.15 -297.44,46.67z"/>
   <path class="fil26" d="M1283.94 4480.26c156.51,-15.44 188.38,-8.31 335.03,-0.85 3.01,-63.35 17.83,-71.01 -36.24,-90.76 -54.28,-19.82 -181.83,-19.36 -243.86,-2.86 -66.49,17.69 -56.12,22.67 -54.93,94.47z"/>
   <path class="fil23" d="M9090.31 830.7c-2.69,2.53 -7.18,2.31 -8.6,6.97l-26.09 17.67c-149.81,99.3 149.16,208.79 76.56,15.75 -24.73,-65.77 -78.63,-169.57 -109.91,-232.11 36.9,-63.55 83.81,-58.35 10.45,-123.48 -117.08,55.71 -33.94,59.27 57.58,315.19z"/>
   <path class="fil21" d="M6098.1 9479.01c-0.81,-39.86 -106.24,-220.19 -125.19,-277.98l46.95 -56.61 -35.92 -63.5c-32.62,21.31 -40.45,23.35 -62.41,64.68 39.75,97.49 99.65,161.84 123.55,270.27 -199.4,63.48 56.36,226.61 53.03,63.14z"/>
   <path class="fil21" d="M9835.82 964.82c-21.85,22.22 0.33,2.93 -26.01,19.6 -12.21,7.73 -19.03,5.18 -34.51,21.46 -75.16,79.03 82.36,166.55 104.27,59.37 9.72,-47.54 -95.99,-231.47 -114.82,-289.99 4.11,-51.15 68.89,-6.84 20.6,-128.07 -106.76,32.41 -67.14,72.47 -28.1,151.6 23.97,48.61 48.82,125.96 78.57,166.03z"/>
   <path class="fil11" d="M11600.43 6368.97c74.52,8.97 71.66,-3.82 94.66,-60 157.3,-4.14 106.95,3.71 120.51,-32.01 -34.09,-28.48 -22.46,-19.25 -120.67,-16.67 -63.61,-159.05 -197.38,-4.96 -94.5,108.68z"/>
   <path class="fil31" d="M185.12 7621.2l186.57 -2.78 0.81 -127.21c-28.98,-0.84 -81.26,-72.66 -92.55,38.9 -35.67,-54.95 -23.39,-49.8 -61.02,-57.99 -33.75,39.17 -32.15,100.01 -33.81,149.08z"/>
   <path class="fil11" d="M12106.67 6179.95c23.02,23.03 -39.88,14.59 43.02,28.79 6,1.03 57.07,0.23 70.41,1 31.03,40.45 73.77,108.61 122.98,37.88 42.56,-61.17 12.78,-123.25 -39.83,-153.01 -64.81,11.95 -42.92,22.03 -83.15,63.43 -28.33,12.99 -64.53,-19.22 -113.43,21.9z"/>
   <path class="fil23" d="M3304.18 9633.48l-86.19 3.36 -100.89 286.02c-76.22,-48.02 -163.54,-19.23 -105.65,91.84l80.05 4.48c108.63,-160.42 46.41,-279.09 161.25,-305.69 5.1,-1.18 22.86,-2.85 37.56,-5.55l13.88 -74.45z"/>
   <path class="fil12" d="M12101.87 5958.22c31.33,22.92 -64.93,19.07 118.23,27.77 29.06,36.49 79.74,113.18 127.38,30.25 33.8,-58.82 6.51,-117.86 -44.23,-145.31 -71,12.69 -41.35,20.93 -83.15,65.21 -27.51,12.43 -62.77,-20.66 -118.23,22.08z"/>
   <path class="fil12" d="M11570.08 6112.95c64.19,55.61 88.37,55.83 123.26,-28.56 165.48,-5.17 107.07,9.37 126.75,-29.16 -49.47,-39.4 -86.35,-8.08 -112.75,-18.37 -38.47,-36.88 -18.05,-49.85 -83.15,-67.2 -66.39,28.09 -66.66,59.71 -54.12,143.3z"/>
   <path class="fil21" d="M9858.22 11826.53c243.22,58.39 -9.59,-317.31 -10.1,-317.89 24.82,-59.09 22.11,-22.67 49.45,-77.02l-33.35 -60.2c-101.13,36.91 -46.65,85.74 -14.31,159.72 26.13,59.79 48.78,119.1 79.5,167.81 -30.04,16.04 -42.34,11.91 -83.63,37.3l12.44 90.27z"/>
   <path class="fil21" d="M10095.81 1259.13c-56.12,-17.58 -59.93,-33.82 -120.99,-2.32 -28.33,116.69 86.5,153.39 127.48,33.91 27.25,-79.45 62.44,-161.75 79.28,-238.3 79.11,-0.04 99.28,7.88 96.27,-77.86l-80.99 -2.73 -101.06 287.3z"/>
   <path class="fil21" d="M4849.7 9935.5l-2.31 -71.62 -85.93 17.53 0.75 317.38c-147.89,-31.52 -161.08,128.66 -11.16,111.01 45.95,-71.04 24.38,-224.77 25.59,-336.89l73.06 -37.42z"/>
   <path class="fil11" d="M3072.99 10603.73c107.15,-25.6 172.89,-20.48 280.41,0.62l-1.01 -75.7c-107.6,-30.27 -177.59,-28.54 -279.76,0.44l0.36 74.64z"/>
   <path class="fil11" d="M4030.65 10478.77l12.05 -58.22c-49.17,-56.84 -156.65,-85.72 -268.02,-72.75l-18.48 70.32c58.63,5.37 92.75,-0.18 149.43,15.27 53.46,14.58 77.06,34.06 125.02,45.38z"/>
   <path class="fil24" d="M578.34 6334.79c10.61,21 -12.27,26.1 43.71,51.97 11.33,5.24 44.91,13.67 63.04,18.48 4.51,79.45 -18.79,83.44 46.6,92.55 27.56,-34.4 16.73,-54.41 23,-100.27 60.53,-11.69 82.23,-12.11 102.23,-65.65l-278.57 2.92z"/>
   <path class="fil32" d="M963.47 7817.14l-93.19 -62.21c-48.94,59.56 -30.62,49.49 -34.54,143.43l94.53 72.98c33.3,-86.55 47.44,-36.82 77.06,-140.76 -85.15,15.1 -27.88,-5.63 -83.92,55.21l40.06 -68.66z"/>
   <path class="fil33" d="M8484.03 11062.4c30.89,-121.83 95.29,-172.4 65.91,-255.24 -19.4,-54.71 -33.32,-42.01 -89.82,-43.64 0.93,70.89 12.37,68.95 26.87,114.34 -38.27,67.9 -31.18,122.86 -23.88,236.14l20.92 -51.61z"/>
   <path class="fil33" d="M8417.55 10877.87c21.17,-37.44 25.9,-75.44 25.96,-113.9 -114.53,3.48 -115.62,82.8 -75.39,168.12 13.74,29.13 31.66,51.27 41.62,82.88l19.09 79.53c0.9,2.52 4.74,11.69 5.46,9.74 0.71,-1.94 3.77,6.37 6.03,9.29 2.55,-41.94 4.35,-83.06 4.18,-125.16 -0.3,-77.4 5.39,-54.78 -26.96,-110.48z"/>
   <path class="fil34" d="M12079.63 4547.41c7.95,3.08 24.22,5.13 36.94,4.99l139.85 0.84c-7.84,-44.17 -12.37,-65.62 3.7,-107.09l-142.65 1.36c-30.32,-0.94 -7.49,-7.63 -48.04,1.44 -9.56,63.35 -11.61,63.05 10.19,98.46z"/>
   <path class="fil35" d="M2921.28 1995.91c-99.18,0.15 -209.76,-17.33 -233.34,26.59 49.78,25.49 419.5,23.99 469.95,0 -26.85,-44.74 -139.18,-26.74 -236.61,-26.59z"/>
   <path class="fil36" d="M5167.02 5076.79c2.22,10.41 21.59,97.14 22.6,99.57 10.85,26.21 31.05,31.45 64.82,38.45 132.09,27.39 79.87,-49.94 191.04,-8.96l-7.19 -62.72c-77.57,10.61 -124.75,83.91 -226.84,25.16 -9.6,-126.96 126.76,-73.99 197.12,-124.72 -139.54,-49.43 -154.24,37.36 -241.56,33.21z"/>
   <path class="fil37" d="M8756.47 8550.44l35.73 165.58c-48.14,62.64 -24.24,-10.28 -47.16,56.41l54.56 4.07c39.86,-52.34 93.49,-160.54 97.2,-253.08 -69.53,15.27 -36.11,26.68 -71.95,94.31 -1.81,-2.7 -4.3,-10.32 -4.89,-8.44l-36.69 -79.39 -26.81 20.53z"/>
   <path class="fil38" d="M6303.06 9076.31c72.97,-22.61 60.91,12 78.05,-77.68 -100.75,0.35 -76.53,2.42 -104.73,92.96 -14.94,47.98 -33.95,86.29 -45.02,135.53 -34.55,-9.39 -98.44,-40.79 -106.86,30.61 -6.32,53.54 43.31,77.07 85,46.78 25.65,-18.64 70.85,-181.62 93.56,-228.21z"/>
   <path class="fil38" d="M9753.12 11366.41c-38.48,-7.81 -54.6,-27.66 -85.93,-6.62 -67.48,45.32 32.38,172.3 85.85,43.86 19.17,-46.03 33.37,-114.43 52.17,-155.03 50.05,-108.1 70.78,39.28 94.29,-111.27 -104.97,-1.46 -70.83,2.46 -99.83,91.09 -16.35,49.97 -35.04,82.85 -46.55,137.96z"/>
   <path class="fil9" d="M6891.63 9389.38l-48.42 -89.73c-99.17,-15.03 -126.7,72.7 -51.37,145.13 29.83,3.25 41.14,10.54 70.14,-3.92 41.08,-20.48 26.72,-26.72 29.66,-51.48z"/>
   <path class="fil34" d="M12131.38 4375.73l96.86 6.69 -3.9 -108.52c-3.9,1.27 -11.65,-0.83 -13.82,5.37l-22.07 9.11c-10.28,2.87 -2.95,23.27 -6.21,-6.58l-46.17 4.7 -61.71 -16.57 -20.22 115.75 77.25 -9.95z"/>
   <path class="fil39" d="M6912.43 10822.21c57.3,-29.9 13.36,-26.76 45.4,-64.47 30.99,-36.47 29.62,-8.88 78.13,-32.31 -5.3,-85.66 -38.42,-27.5 -74.75,-62.95 -19.61,-38.89 -8.03,-41.38 -48.78,-62.59l-15.17 55.31c-3.43,45.32 -2.07,134.73 15.17,167.01z"/>
   <path class="fil21" d="M10807.08 11306.77l80.51 194.71c-42.21,17.67 -91.02,13.46 -82.06,81.91 7.55,57.58 49.81,56.19 108.31,39.45 34.33,-71.39 -1.43,-106.58 -30.46,-170.29l-63.38 -131.28c-1.08,-1.65 -5.54,-2.91 -6.36,-7.29 -0.82,-4.41 -4.31,-4.87 -6.56,-7.21z"/>
   <path class="fil40" d="M12481.5 4489.26c-28.35,53.33 -8.1,112.98 16.33,111.07 48.24,-3.77 -6.28,15.16 23.98,-10.46l-4.89 25.03c0.32,1.55 2.84,6.84 3.23,8.24 0.42,1.52 3.33,5.46 4.83,8.29 39.14,-26.81 30.47,-29.2 61.92,-66.68 2,34.11 -20.98,45.37 -36.12,93.46 47.14,-12.33 63.72,-27.25 94.26,-92.51 -26.29,-8.38 -28.06,-11.13 -51.55,-21.06 -3.48,-1.47 -13.15,-4.95 -16.05,-6.18 -60.05,-25.52 -48.71,-65.74 -95.93,-49.19z"/>
   <path class="fil41" d="M4570.47 6380.31l295.61 -1.87 -2.31 -53.84 -316.87 12.35c4.02,52.08 -15.05,21.07 23.57,43.36z"/>
   <path class="fil31" d="M467.01 7618.56c39.49,24.47 16.84,3.33 17.45,-50.39 0.46,-40.86 -1.63,-45.68 4.74,-88.29l-34.64 4.4 -72.9 -13.23 -0.06 150.17c27.42,8.98 63.46,6.05 85.41,-2.66z"/>
   <path class="fil42" d="M9040.88 11591.69c50.03,10.99 30.82,9.83 69.43,-13.12 104.76,-62.28 14.92,-124.64 -63.73,-120.47 -28.44,53.76 -21.64,73.27 -5.7,133.59z"/>
   <path class="fil42" d="M9090.05 11667.78c44.54,38.32 57.46,75.11 133.31,65.58 8.33,-56.02 25.66,-129.15 -38.57,-131.43 -29.62,-1.06 -78.43,29.38 -94.74,65.85z"/>
   <path class="fil43" d="M9285.61 11733.93c60.9,1.96 109.41,-18.31 125.45,-80.01 -21.29,-28.65 -72.33,-69.86 -107.39,-49.5 -35.97,20.89 -24.36,82.81 -18.06,129.5z"/>
   <path class="fil42" d="M9091.83 11390.62c20.89,22.86 64.37,64.88 103.07,52.73 50.87,-15.98 30.15,-81.96 24.36,-130.64 -61.47,-0.64 -112.39,25.79 -127.43,77.91z"/>
   <path class="fil31" d="M302.09 7856.9c50.97,7.85 62.83,10.11 72.76,-41.45 6.88,-35.69 7.67,-88.56 -23.63,-105.77 -80.16,-44.09 -88.7,90.1 -49.14,147.22z"/>
   <path class="fil43" d="M9409.59 11376.76c-33.8,-44.46 -51.61,-59.02 -129.69,-59.85 -4.8,53.41 -18.42,116.44 32.03,127.49 22.36,4.9 76.12,-14.54 97.66,-67.65z"/>
   <path class="fil44" d="M382.74 7860.43c49.05,-18.61 23.39,34.44 37.85,-42.43 18.6,66.81 -5.73,33.56 49.39,40.71l-1.09 -150.69c-31.41,7.99 -36.65,-24.71 -34.07,44.41 -19.02,-47.1 -10.83,-36.47 -48.38,-45.3l-3.7 153.3z"/>
   <path class="fil42" d="M9351.22 11529.2c30.74,30.81 -21.53,-8.46 25.7,30.37l86.96 34.97 -0.07 -139.11c-83.48,-5.85 -108.59,17.85 -112.59,73.78z"/>
   <path class="fil45" d="M2019.81 9793.19c-11.92,-3.18 -208.56,-13.62 -247.14,17.61 23.63,17.7 -56.67,25.66 136.96,25.95 143.1,0.22 116.84,11.93 141.36,-25.95 -17.48,-13.16 -3.35,-10.19 -31.18,-17.61z"/>
   <path class="fil9" d="M6940.05 9568.68c-69.92,-1.07 -80.29,27.27 -90.23,79.93l176.59 -1.85c-7.65,-52.12 -24.9,-77.14 -86.36,-78.07z"/>
   <path class="fil22" d="M467.01 7618.56c30.73,17.74 32.56,11.04 84.8,15.37l10.7 -151.15c-36.57,-10.62 -68.74,-20.04 -107.96,1.5l34.64 -4.4c-6.38,42.61 -4.28,47.43 -4.74,88.29 -0.6,53.72 22.05,74.86 -17.45,50.39z"/>
   <path class="fil27" d="M7493.99 9642.33c-6.31,-111.72 -163.05,-105.8 -176.2,1.65l176.2 -1.65z"/>
   <path class="fil27" d="M7259.88 9642.76c-12.94,-105 -158.92,-107.01 -177.04,2.69l177.04 -2.69z"/>
   <path class="fil42" d="M8711.86 11730.21c68.93,-0.57 92.74,-21.5 121.71,-62.42 -14.31,-15.61 -54.73,-61.53 -91.04,-55.01 -49.85,8.95 -33.69,63.47 -30.67,117.43z"/>
   <path class="fil46" d="M8825.26 11418.34c-19.56,-38.3 -54.52,-70.78 -114.66,-58.46 -26.09,165.88 71.58,123.25 114.66,58.46z"/>
   <path class="fil42" d="M8537.24 11418.34c15.54,26.7 66.9,60.42 91.35,54.64 48.6,-11.48 30.95,-78.32 22.07,-116.12 -61.21,0.76 -88.99,23.91 -113.43,61.48z"/>
   <path class="fil42" d="M8535.38 11667.78c0.58,0.39 27.93,36.2 46.6,47.7 24.27,14.94 39.41,18.28 75.25,18.97 22.9,-162.18 -47.35,-127.61 -121.85,-66.67z"/>
   <path class="fil43" d="M8489.45 11609.85c61.28,-5.96 95.89,-15.07 106.23,-66.79 -15.36,-44.5 -53.93,-58.63 -103.15,-57.76l-3.08 124.55z"/>
   <path class="fil47" d="M12131.38 4375.73c14.3,9.03 4.45,10.28 33.23,15.58 11.8,2.18 42.31,1.85 55.3,1.71 33.25,-0.36 63.61,-1.44 94.99,-3.31l16 -90.02c-27.91,28.07 -3.08,-0.68 -18.32,38.06l-27 51c0.78,-49.73 7.69,-56.53 -10.04,-95.61 -55.28,69.61 -4.53,-20.16 -22.01,67.12l-5.7 18.8c-12.57,-26.24 -6.51,5.93 -11.7,-42.06 -1.72,-15.95 0.17,-35.34 0.27,-54.11l94.02 3.51c-14.41,-28.1 28.69,-13.41 -40.33,-23.11 -6.29,-0.88 -45.27,2.32 -56.1,2.49 -59.54,0.93 -66.61,-16.29 -97.93,20.71l46.17 -4.7c3.26,29.85 -4.07,9.45 6.21,6.58l22.07 -9.11c2.17,-6.2 9.92,-4.1 13.82,-5.37l3.9 108.52 -96.86 -6.69z"/>
   <path class="fil42" d="M8771.07 11543.06c21.37,41.81 45.89,60.79 102.02,53.74l0.32 -113.96c-54.36,-8.49 -87.22,11.77 -102.34,60.22z"/>
   <path class="fil48" d="M8740.81 928.64l22.02 -35.51c98.89,-225.08 7.14,-73.49 100.9,-134.98 30.58,-20.05 19.74,-31.56 19.96,-66.65 -96.34,2.36 -72.2,4.47 -97.32,86.58 -15.5,50.66 -38.8,91.51 -45.56,150.56z"/>
   <path class="fil21" d="M4973.08 9989.24c-27.44,-4.39 -160.14,-30.99 -105.25,63.56 39.46,67.97 96.37,9.8 105.25,-63.56z"/>
   <path class="fil49" d="M548.98 7856.17c-12.8,-32.47 -24.58,-17.59 -16.21,-107.17l10.24 -43.9 -60.88 2.95 -1.44 151.99 68.29 -3.87z"/>
   <path class="fil24" d="M8740.81 928.64c-145.68,-48.4 -144.88,71.23 -36.17,82.2 32.74,-35.64 32.77,-28.22 36.17,-82.2z"/>
   <path class="fil46" d="M3698.79 1329.59c-61.03,110.64 112.92,139.51 77.06,4.45 -24.6,-11.92 -42.46,-19.13 -77.06,-4.45z"/>
   <path class="fil50" d="M3527.17 1325.23c-18.18,78.55 13.81,126.2 84.29,73.66 8.61,-59.61 -25.18,-106.68 -84.29,-73.66z"/>
   <path class="fil50" d="M3849.1 1394.35c111.12,89.62 157.47,-95.23 22.38,-70.17l-22.38 70.17z"/>
   <path class="fil21" d="M10807.08 11306.77c17.29,-51.04 15.6,-25.78 51.54,-69.62l-24.6 -68.76c-44.3,16.5 -49.21,23.39 -74.58,56.93l47.64 81.45z"/>
   <path class="fil49" d="M864.74 8028.23c-78.34,-14.71 -119.54,55.08 -126.78,99.75l35.31 24.99 91.47 -124.74z"/>
   <path class="fil40" d="M11992.22 4389.02l74.3 1.56c-14.9,-144.75 -7.88,-95.11 -40.43,-118.7 -37.85,34.45 -28.09,58.36 -33.87,117.15z"/>
   <path class="fil51" d="M8396.01 9963.72c-28.35,4.86 -15.5,4.66 -28.74,13.37 32.04,36.61 -4,31.39 83.36,31.79 67.76,0.31 61.48,11.9 84.76,-31.79 -32.42,-20.86 -108.08,-18.73 -139.38,-13.37z"/>
   <path class="fil49" d="M963.3 8002.15c46.66,-1.23 15.45,-24.87 82.21,-78.84 28.63,-23.15 -38.52,30.46 15.83,-11.22 1.61,-1.23 6.49,-2.33 7.65,-6.6 1.2,-4.4 5.19,-4.61 9.99,-10.63l-56.27 -37.42 -37.09 73.5c-12.7,21.3 -17.4,16.93 -24.23,33.25 -31.88,76.14 -9.2,8.97 1.91,37.96z"/>
   <path class="fil49" d="M562.53 7477.28c53.56,161.14 -18.34,126.71 44.43,152.61l31.93 -151.51 -76.37 -1.1z"/>
   <path class="fil49" d="M4187.53 9345.12c-20.88,65.94 2.11,88.75 69.13,63.65l-5.88 -69.16 -63.24 5.51z"/>
   <path class="fil45" d="M4542.62 9492.23c-4.01,66.17 -2,6.81 11.8,32.64 95.25,28.15 91.07,-94.86 -0.19,-64.7 -11.19,18.69 -8.28,-23.03 -11.62,32.06z"/>
   <polygon class="fil33" points="4631.27,9412.1 4622.19,9340.94 4554.98,9342.84 4558.38,9414.78 "/>
   <path class="fil38" d="M5110.03 9756.83l-65.46 2.77 -20.67 72.7c2.72,-0.23 44.82,-4.14 45.43,-4.27 29.47,-6.73 18.99,-6.52 38.87,-16.91l1.81 -54.29z"/>
   <path class="fil33" d="M4242.74 9240.35c-10.87,-6.44 -8.3,-11.05 -32.95,-13.62 -65.51,-6.83 -11.88,0.26 -38.97,10.9l2.18 61.12 70.8 -0.97 -1.06 -57.43z"/>
   <polygon class="fil45" points="4570.7,9303.15 4639.36,9294.83 4635.17,9226.87 4560.78,9236.66 "/>
   <path class="fil33" d="M4255.89 9526.09c7.23,-15.16 8.68,19.43 11.14,-34.08 3.37,-73.2 5.02,-0.87 -12.47,-39.08l-62.67 11.4 3.7 61.35 60.3 0.4z"/>
   <path class="fil52" d="M12330.9 4299.7l-0.49 -13.29 -94.02 -3.51c-0.1,18.77 -1.99,38.16 -0.27,54.11 5.19,47.99 -0.87,15.82 11.7,42.06l5.7 -18.8c17.48,-87.28 -33.27,2.49 22.01,-67.12 17.74,39.08 10.82,45.88 10.04,95.61l27 -51c15.25,-38.74 -9.59,-9.99 18.32,-38.06z"/>
   <path class="fil53" d="M12409.77 4768.11c30.66,-11.42 46.21,-28.08 80.85,-91.88 -34.33,-4.88 -38.6,-7.68 -65.75,17.9 -49.05,46.2 -15.18,73.84 -15.1,73.98z"/>
   <path class="fil54" d="M6995.58 11631.94l-27.71 -74.96c-12.22,18.65 -29.23,10.81 -13.79,83.01l56.98 10.38c11.42,-25.53 36.21,-41.84 12.24,-85.42l-11.46 33.63c-1.25,3.27 -2.7,8.03 -4.02,11.2l-12.24 22.16z"/>
   <path class="fil55" d="M3407.34 3433.75c-66,5.75 -134.21,30.53 -164.56,70.24 43.06,-6.37 30.58,-5.53 66.53,-28.45l36.37 23.34 61.65 -65.12z"/>
   <path class="fil56" d="M3983.1 711.43c3.35,1.53 8.23,0.99 9.97,4.78 1.69,3.69 8.05,3.13 10.31,3.12 23.85,-0.14 7.96,2.1 34.05,-5.67 13.71,-83.32 -47.93,-68.75 -60.94,-44.85 -30.35,55.76 5.75,41.24 6.6,42.62z"/>
   <path class="fil57" d="M4834.43 4779.38c-3.93,-10.37 -1.4,-42.8 -49.5,-20.31 -44.06,20.61 -24.63,23.17 -12.16,53.93 31.26,-5.29 14.28,-21.16 61.66,-33.62z"/>
   <path class="fil48" d="M9524.28 8618.94l42.99 0.48c12.43,-43.56 15.05,-64.35 -35.72,-55.93l-7.28 55.46z"/>
   <path class="fil8" d="M9379.96 8053.52l1592.31 0 0 1130.83 -1592.31 0 0 -1130.83zm208.92 149.43l1170.31 0 0 831.14 -1170.31 0 0 -831.14zm37.4 32.48l1095.52 0 0 766.18 -1095.52 0 0 -766.18z"/>
  </g>
 </g>
</svg>
